<?xml version="1.0" encoding="utf-8" standalone="no"?>
<!DOCTYPE svg PUBLIC "-//W3C//DTD SVG 1.1//EN"
  "http://www.w3.org/Graphics/SVG/1.1/DTD/svg11.dtd">
<!-- Created with matplotlib (https://matplotlib.org/) -->
<svg height="345.6pt" version="1.1" viewBox="0 0 460.8 345.6" width="460.8pt" xmlns="http://www.w3.org/2000/svg" xmlns:xlink="http://www.w3.org/1999/xlink">
 <defs>
  <style type="text/css">
*{stroke-linecap:butt;stroke-linejoin:round;}
  </style>
 </defs>
 <g id="figure_1">
  <g id="patch_1">
   <path d="M 0 345.6 
L 460.8 345.6 
L 460.8 0 
L 0 0 
z
" style="fill:#ffffff;"/>
  </g>
  <g id="axes_1">
   <g id="line2d_1">
    <path clip-path="url(#p09a43492c4)" d="M 135.579118 117.504 
L 141.443893 108.361721 
L 152.293725 108.869626 
L 146.428951 118.011904 
L 151.414009 127.662087 
L 163.143558 109.37753 
L 158.1585 99.727347 
L 164.023274 90.585069 
L 185.72294 91.600877 
L 179.858165 100.743156 
L 169.008333 100.235252 
L 173.993391 109.885435 
L 184.843224 110.393339 
L 189.828282 120.043522 
L 178.098733 138.328079 
L 173.113675 128.677896 
L 178.978449 119.535617 
L 168.128616 119.027713 
L 162.263842 128.169992 
L 167.2489 137.820175 
L 161.384126 146.962453 
L 156.399067 137.31227 
L 145.549235 136.804366 
L 155.519351 156.104732 
L 166.369184 156.612636 
L 172.233958 147.470358 
L 183.083791 147.978262 
L 177.219017 157.120541 
L 182.204075 166.770724 
L 193.933624 148.486166 
L 188.948566 138.835983 
L 194.81334 129.693705 
L 205.663173 130.201609 
L 199.798398 139.343888 
L 204.783457 148.994071 
L 216.513006 130.709514 
L 211.527947 121.059331 
L 200.678115 120.551426 
L 190.707998 101.25106 
L 201.557831 101.758965 
L 206.542889 111.409148 
L 212.407663 102.266869 
L 207.422605 92.616686 
L 213.28738 83.474407 
L 224.137212 83.982312 
L 218.272438 93.12459 
L 223.257496 102.774773 
L 234.987045 84.490216 
L 230.001987 74.840033 
L 235.866761 65.697755 
L 257.566427 66.713563 
L 251.701652 75.855842 
L 240.85182 75.347938 
L 245.836878 84.998121 
L 256.686711 85.506025 
L 262.551485 76.363746 
L 284.251151 77.379555 
L 278.386376 86.521834 
L 267.536543 86.013929 
L 272.521602 95.664112 
L 283.371434 96.172017 
L 288.356493 105.8222 
L 276.626944 124.106757 
L 271.641885 114.456574 
L 277.50666 105.314295 
L 266.656827 104.806391 
L 260.792053 113.948669 
L 249.94222 113.440765 
L 244.957162 103.790582 
L 255.806994 104.298486 
L 261.671769 95.156208 
L 239.972103 94.140399 
L 234.107329 103.282678 
L 239.092387 112.932861 
L 233.227613 122.075139 
L 228.242554 112.424956 
L 217.392722 111.917052 
L 227.362838 131.217418 
L 238.212671 131.725322 
L 244.077446 122.583044 
L 265.777111 123.598852 
L 259.912337 132.741131 
L 249.062504 132.233227 
L 254.047562 141.88341 
L 264.897395 142.391314 
L 269.882453 152.041497 
L 264.017679 161.183775 
L 259.03262 151.533593 
L 248.182788 151.025688 
L 258.152904 170.326054 
L 269.002737 170.833958 
L 273.987795 180.484141 
L 262.258246 198.768699 
L 257.273188 189.118516 
L 263.137962 179.976237 
L 252.28813 179.468333 
L 246.423355 188.610611 
L 251.408414 198.260794 
L 239.678865 216.545351 
L 234.693806 206.895168 
L 240.558581 197.75289 
L 229.708748 197.244985 
L 223.843974 206.387264 
L 212.994141 205.87936 
L 203.024024 186.578994 
L 213.873857 187.086898 
L 218.858915 196.737081 
L 224.72369 187.594803 
L 219.738632 177.94462 
L 225.603406 168.802341 
L 236.453239 169.310245 
L 230.588464 178.452524 
L 235.573523 188.102707 
L 247.303071 169.81815 
L 242.318013 160.167967 
L 231.46818 159.660062 
L 226.483122 150.009879 
L 237.332955 150.517784 
L 243.197729 141.375505 
L 221.498064 140.359696 
L 215.633289 149.501975 
L 220.618348 159.152158 
L 208.888799 177.436715 
L 203.903741 167.786532 
L 209.768515 158.644254 
L 198.918682 158.136349 
L 193.053908 167.278628 
L 198.038966 176.928811 
L 192.174192 186.071089 
L 187.189133 176.420906 
L 176.339301 175.913002 
L 186.309417 195.213368 
L 197.15925 195.721272 
L 202.144308 205.371455 
L 190.414759 223.656013 
L 185.429701 214.00583 
L 191.294475 204.863551 
L 180.444643 204.355647 
L 174.579868 213.497925 
L 163.730036 212.990021 
L 153.759919 193.689655 
L 164.609752 194.197559 
L 169.59481 203.847742 
L 175.459584 194.705464 
L 170.474526 185.055281 
L 159.624693 184.547376 
L 154.639635 174.897193 
L 165.489468 175.405098 
L 171.354242 166.262819 
L 149.654577 165.24701 
L 143.789802 174.389289 
L 148.774861 184.039472 
L 142.910086 193.181751 
L 137.925028 183.531568 
L 127.075195 183.023663 
L 137.045312 202.324029 
L 147.895145 202.831934 
L 152.880203 212.482116 
L 147.015428 221.624395 
L 142.03037 211.974212 
L 131.180537 211.466308 
L 141.150654 230.766674 
L 152.000487 231.274578 
L 157.865261 222.132299 
L 179.564927 223.148108 
L 173.700152 232.290387 
L 162.850319 231.782482 
L 167.835378 241.432665 
L 178.68521 241.94057 
L 184.549985 232.798291 
L 195.399818 233.306196 
L 189.535043 242.448474 
L 194.520101 252.098657 
L 206.24965 233.8141 
L 201.264592 224.163917 
L 207.129366 215.021638 
L 228.829032 216.037447 
L 222.964257 225.179726 
L 212.114425 224.671821 
L 217.099483 234.322004 
L 227.949316 234.829909 
L 232.934374 244.480092 
L 221.204825 262.764649 
L 216.219767 253.114466 
L 222.084541 243.972187 
L 211.234709 243.464283 
L 205.369934 252.606561 
L 210.354992 262.256744 
L 204.490218 271.399023 
L 199.50516 261.74884 
L 188.655327 261.240936 
L 198.625444 280.541302 
L 209.475276 281.049206 
L 215.340051 271.906927 
L 226.189883 272.414832 
L 220.325109 281.55711 
L 225.310167 291.207293 
L 237.039716 272.922736 
L 232.054658 263.272553 
L 237.919432 254.130275 
L 248.769265 254.638179 
L 242.904491 263.780457 
L 247.889549 273.43064 
L 259.619098 255.146083 
L 254.63404 245.4959 
L 243.784207 244.987996 
L 233.81409 225.68763 
L 244.663923 226.195534 
L 249.648981 235.845717 
L 255.513756 226.703439 
L 250.528697 217.053256 
L 256.393472 207.910977 
L 267.243305 208.418882 
L 261.37853 217.56116 
L 266.363588 227.211343 
L 278.093137 208.926786 
L 273.108079 199.276603 
L 278.972853 190.134324 
L 300.672519 191.150133 
L 294.807745 200.292412 
L 283.957912 199.784507 
L 288.94297 209.43469 
L 299.792803 209.942595 
L 304.777861 219.592778 
L 293.048312 237.877335 
L 288.063254 228.227152 
L 293.928028 219.084873 
L 283.078196 218.576969 
L 277.213421 227.719247 
L 282.198479 237.36943 
L 276.333705 246.511709 
L 271.348647 236.861526 
L 260.498814 236.353622 
L 270.468931 255.653988 
L 281.318763 256.161892 
L 287.183538 247.019613 
L 298.03337 247.527518 
L 292.168596 256.669796 
L 297.153654 266.319979 
L 308.883203 248.035422 
L 303.898145 238.385239 
L 309.762919 229.242961 
L 320.612752 229.750865 
L 314.747978 238.893144 
L 319.733036 248.543326 
L 331.462585 230.258769 
L 326.477527 220.608586 
L 315.627694 220.100682 
L 305.657577 200.800316 
L 316.50741 201.30822 
L 321.492468 210.958403 
L 327.357243 201.816125 
L 322.372184 192.165942 
L 311.522352 191.658037 
L 306.537293 182.007855 
L 317.387126 182.515759 
L 323.251901 173.37348 
L 301.552235 172.357672 
L 295.687461 181.49995 
L 284.837628 180.992046 
L 274.867511 161.69168 
L 285.717344 162.199584 
L 290.702402 171.849767 
L 296.567177 162.707489 
L 291.582119 153.057306 
L 280.732286 152.549401 
L 270.762169 133.249035 
L 281.612002 133.75694 
L 286.59706 143.407123 
L 292.461835 134.264844 
L 287.476776 124.614661 
L 293.341551 115.472383 
L 315.041216 116.488191 
L 309.176442 125.63047 
L 298.326609 125.122565 
L 303.311667 134.772748 
L 314.1615 135.280653 
L 319.146558 144.930836 
L 313.281784 154.073114 
L 308.296726 144.422931 
L 297.446893 143.915027 
L 307.41701 163.215393 
L 318.266842 163.723297 
L 324.131617 154.581019 
L 334.98145 155.088923 
L 329.116675 164.231202 
L 334.101733 173.881385 
L 345.831282 155.596827 
L 340.846224 145.946645 
L 329.996391 145.43874 
L 320.026275 126.138374 
L 330.876107 126.646279 
L 335.861166 136.296462 
L 341.72594 127.154183 
L 336.740882 117.504 
L 336.740882 117.504 
" style="fill:none;stroke:#000000;stroke-linecap:square;stroke-width:0.5;"/>
   </g>
  </g>
 </g>
 <defs>
  <clipPath id="p09a43492c4">
   <rect height="266.112" width="277.193764" x="97.563118" y="41.472"/>
  </clipPath>
 </defs>
</svg>
