<?xml version="1.0" encoding="utf-8" standalone="no"?>
<!DOCTYPE svg PUBLIC "-//W3C//DTD SVG 1.1//EN"
  "http://www.w3.org/Graphics/SVG/1.1/DTD/svg11.dtd">
<!-- Created with matplotlib (https://matplotlib.org/) -->
<svg height="345.6pt" version="1.1" viewBox="0 0 460.8 345.6" width="460.8pt" xmlns="http://www.w3.org/2000/svg" xmlns:xlink="http://www.w3.org/1999/xlink">
 <defs>
  <style type="text/css">
*{stroke-linecap:butt;stroke-linejoin:round;}
  </style>
 </defs>
 <g id="figure_1">
  <g id="patch_1">
   <path d="M 0 345.6 
L 460.8 345.6 
L 460.8 0 
L 0 0 
z
" style="fill:#ffffff;"/>
  </g>
  <g id="axes_1">
   <g id="line2d_1">
    <path clip-path="url(#p02a72eb0bd)" d="M 135.579118 117.504 
L 158.1585 99.727347 
L 184.843224 110.393339 
L 162.263842 128.169992 
L 166.369184 156.612636 
L 188.948566 138.835983 
L 211.527947 121.059331 
L 207.422605 92.616686 
L 230.001987 74.840033 
L 256.686711 85.506025 
L 283.371434 96.172017 
L 260.792053 113.948669 
L 234.107329 103.282678 
L 238.212671 131.725322 
L 264.897395 142.391314 
L 269.002737 170.833958 
L 246.423355 188.610611 
L 223.843974 206.387264 
L 219.738632 177.94462 
L 242.318013 160.167967 
L 215.633289 149.501975 
L 193.053908 167.278628 
L 197.15925 195.721272 
L 174.579868 213.497925 
L 170.474526 185.055281 
L 143.789802 174.389289 
L 147.895145 202.831934 
L 152.000487 231.274578 
L 178.68521 241.94057 
L 201.264592 224.163917 
L 227.949316 234.829909 
L 205.369934 252.606561 
L 209.475276 281.049206 
L 232.054658 263.272553 
L 254.63404 245.4959 
L 250.528697 217.053256 
L 273.108079 199.276603 
L 299.792803 209.942595 
L 277.213421 227.719247 
L 281.318763 256.161892 
L 303.898145 238.385239 
L 326.477527 220.608586 
L 322.372184 192.165942 
L 295.687461 181.49995 
L 291.582119 153.057306 
L 287.476776 124.614661 
L 314.1615 135.280653 
L 318.266842 163.723297 
L 340.846224 145.946645 
L 336.740882 117.504 
" style="fill:none;stroke:#000000;stroke-linecap:square;stroke-width:0.5;"/>
   </g>
  </g>
 </g>
 <defs>
  <clipPath id="p02a72eb0bd">
   <rect height="266.112" width="277.193764" x="97.563118" y="41.472"/>
  </clipPath>
 </defs>
</svg>
