<?xml version="1.0" encoding="utf-8" standalone="no"?>
<!DOCTYPE svg PUBLIC "-//W3C//DTD SVG 1.1//EN"
  "http://www.w3.org/Graphics/SVG/1.1/DTD/svg11.dtd">
<!-- Created with matplotlib (https://matplotlib.org/) -->
<svg height="345.6pt" version="1.1" viewBox="0 0 460.8 345.6" width="460.8pt" xmlns="http://www.w3.org/2000/svg" xmlns:xlink="http://www.w3.org/1999/xlink">
 <defs>
  <style type="text/css">
*{stroke-linecap:butt;stroke-linejoin:round;}
  </style>
 </defs>
 <g id="figure_1">
  <g id="patch_1">
   <path d="M 0 345.6 
L 460.8 345.6 
L 460.8 0 
L 0 0 
z
" style="fill:#ffffff;"/>
  </g>
  <g id="axes_1">
   <g id="line2d_1">
    <path clip-path="url(#p0bc520fe17)" d="M 135.579118 117.504 
L 136.542617 113.513323 
L 140.480394 112.352399 
L 139.516895 116.343076 
L 142.491174 119.172829 
L 144.418171 111.191474 
L 141.443893 108.361721 
L 142.407391 104.371044 
L 150.282946 102.049196 
L 149.319447 106.039873 
L 145.38167 107.200797 
L 148.355948 110.03055 
L 152.293725 108.869626 
L 155.268004 111.699379 
L 153.341006 119.680733 
L 150.366728 116.85098 
L 151.330227 112.860303 
L 147.39245 114.021227 
L 146.428951 118.011904 
L 149.403229 120.841657 
L 148.439731 124.832334 
L 145.465452 122.002582 
L 141.527675 123.163506 
L 147.476232 128.823012 
L 151.414009 127.662087 
L 152.377508 123.67141 
L 156.315285 122.510486 
L 155.351786 126.501163 
L 158.326065 129.330916 
L 160.253062 121.349562 
L 157.278784 118.519809 
L 158.242282 114.529132 
L 162.180059 113.368207 
L 161.216561 117.358884 
L 164.190839 120.188637 
L 166.117837 112.207283 
L 163.143558 109.37753 
L 159.205781 110.538454 
L 153.257224 104.878949 
L 157.195001 103.718024 
L 160.16928 106.547777 
L 161.132778 102.5571 
L 158.1585 99.727347 
L 159.121998 95.73667 
L 163.059776 94.575746 
L 162.096277 98.566423 
L 165.070555 101.396176 
L 166.997553 93.414821 
L 164.023274 90.585069 
L 164.986773 86.594391 
L 172.862327 84.272543 
L 171.898829 88.26322 
L 167.961051 89.424144 
L 170.93533 92.253897 
L 174.873107 91.092973 
L 175.836606 87.102296 
L 183.71216 84.780447 
L 182.748661 88.771124 
L 178.810884 89.932049 
L 181.785163 92.761802 
L 185.72294 91.600877 
L 188.697218 94.43063 
L 186.770221 102.411985 
L 183.795942 99.582232 
L 184.759441 95.591554 
L 180.821664 96.752479 
L 179.858165 100.743156 
L 175.920388 101.90408 
L 172.94611 99.074327 
L 176.883887 97.913403 
L 177.847385 93.922726 
L 169.971831 96.244574 
L 169.008333 100.235252 
L 171.982611 103.065004 
L 171.019112 107.055682 
L 168.044834 104.225929 
L 164.107057 105.386853 
L 170.055614 111.046359 
L 173.993391 109.885435 
L 174.956889 105.894757 
L 182.832444 103.572909 
L 181.868945 107.563586 
L 177.931168 108.72451 
L 180.905446 111.554263 
L 184.843224 110.393339 
L 187.817502 113.223092 
L 186.854003 117.213769 
L 183.879725 114.384016 
L 179.941948 115.54494 
L 185.890505 121.204446 
L 189.828282 120.043522 
L 192.80256 122.873275 
L 190.875563 130.854629 
L 187.901285 128.024876 
L 188.864783 124.034199 
L 184.927006 125.195123 
L 183.963507 129.1858 
L 186.937786 132.015553 
L 185.010789 139.996908 
L 182.03651 137.167155 
L 183.000009 133.176478 
L 179.062232 134.337402 
L 178.098733 138.328079 
L 174.160956 139.489003 
L 168.212399 133.829497 
L 172.150176 132.668573 
L 175.124454 135.498326 
L 176.087953 131.507649 
L 173.113675 128.677896 
L 174.077173 124.687219 
L 178.01495 123.526295 
L 177.051452 127.516972 
L 180.02573 130.346725 
L 181.952728 122.36537 
L 178.978449 119.535617 
L 175.040672 120.696542 
L 172.066393 117.866789 
L 176.004171 116.705865 
L 176.967669 112.715187 
L 169.092115 115.037036 
L 168.128616 119.027713 
L 171.102895 121.857466 
L 169.175898 129.83882 
L 166.201619 127.009067 
L 167.165118 123.01839 
L 163.227341 124.179315 
L 162.263842 128.169992 
L 165.23812 130.999745 
L 164.274622 134.990422 
L 161.300343 132.160669 
L 157.362566 133.321593 
L 163.311123 138.981099 
L 167.2489 137.820175 
L 170.223179 140.649928 
L 168.296181 148.631282 
L 165.321903 145.801529 
L 166.285402 141.810852 
L 162.347624 142.971776 
L 161.384126 146.962453 
L 157.446349 148.123378 
L 151.497792 142.463872 
L 155.435569 141.302947 
L 158.409847 144.1327 
L 159.373346 140.142023 
L 156.399067 137.31227 
L 152.46129 138.473195 
L 149.487012 135.643442 
L 153.424789 134.482517 
L 154.388288 130.49184 
L 146.512733 132.813689 
L 145.549235 136.804366 
L 148.523513 139.634119 
L 147.560015 143.624796 
L 144.585736 140.795043 
L 140.647959 141.955967 
L 146.596516 147.615473 
L 150.534293 146.454549 
L 153.508571 149.284302 
L 152.545073 153.274979 
L 149.570794 150.445226 
L 145.633017 151.60615 
L 151.581574 157.265656 
L 155.519351 156.104732 
L 156.48285 152.114055 
L 164.358404 149.792206 
L 163.394906 153.782883 
L 159.457128 154.943808 
L 162.431407 157.77356 
L 166.369184 156.612636 
L 167.332683 152.621959 
L 171.27046 151.461035 
L 170.306961 155.451712 
L 173.28124 158.281465 
L 175.208237 150.300111 
L 172.233958 147.470358 
L 173.197457 143.47968 
L 181.073011 141.157832 
L 180.109513 145.148509 
L 176.171736 146.309433 
L 179.146014 149.139186 
L 183.083791 147.978262 
L 186.05807 150.808015 
L 184.131072 158.789369 
L 181.156794 155.959616 
L 182.120293 151.968939 
L 178.182515 153.129863 
L 177.219017 157.120541 
L 180.193295 159.950293 
L 179.229797 163.940971 
L 176.255518 161.111218 
L 172.317741 162.272142 
L 178.266298 167.931648 
L 182.204075 166.770724 
L 183.167574 162.780046 
L 187.105351 161.619122 
L 186.141852 165.609799 
L 189.116131 168.439552 
L 191.043128 160.458198 
L 188.068849 157.628445 
L 189.032348 153.637768 
L 192.970125 152.476844 
L 192.006627 156.467521 
L 194.980905 159.297274 
L 196.907902 151.315919 
L 193.933624 148.486166 
L 189.995847 149.647091 
L 184.04729 143.987585 
L 187.985067 142.826661 
L 190.959345 145.656413 
L 191.922844 141.665736 
L 188.948566 138.835983 
L 189.912064 134.845306 
L 193.849841 133.684382 
L 192.886343 137.675059 
L 195.860621 140.504812 
L 197.787619 132.523458 
L 194.81334 129.693705 
L 195.776839 125.703028 
L 203.652393 123.381179 
L 202.688894 127.371856 
L 198.751117 128.532781 
L 201.725396 131.362533 
L 205.663173 130.201609 
L 208.637451 133.031362 
L 206.710454 141.012716 
L 203.736176 138.182963 
L 204.699674 134.192286 
L 200.761897 135.353211 
L 199.798398 139.343888 
L 202.772677 142.173641 
L 201.809178 146.164318 
L 198.8349 143.334565 
L 194.897123 144.495489 
L 200.84568 150.154995 
L 204.783457 148.994071 
L 205.746955 145.003394 
L 209.684732 143.842469 
L 208.721234 147.833146 
L 211.695512 150.662899 
L 213.62251 142.681545 
L 210.648231 139.851792 
L 211.61173 135.861115 
L 215.549507 134.700191 
L 214.586008 138.690868 
L 217.560287 141.520621 
L 219.487284 133.539266 
L 216.513006 130.709514 
L 212.575228 131.870438 
L 206.626672 126.210932 
L 210.564449 125.050008 
L 213.538727 127.879761 
L 214.502226 123.889083 
L 211.527947 121.059331 
L 207.59017 122.220255 
L 204.615892 119.390502 
L 208.553669 118.229578 
L 209.517167 114.238901 
L 201.641613 116.560749 
L 200.678115 120.551426 
L 196.740337 121.71235 
L 190.79178 116.052845 
L 194.729558 114.89192 
L 197.703836 117.721673 
L 198.667335 113.730996 
L 195.693056 110.901243 
L 191.755279 112.062168 
L 185.806722 106.402662 
L 189.744499 105.241737 
L 192.718778 108.07149 
L 193.682276 104.080813 
L 190.707998 101.25106 
L 191.671497 97.260383 
L 199.547051 94.938535 
L 198.583552 98.929212 
L 194.645775 100.090136 
L 197.620054 102.919889 
L 201.557831 101.758965 
L 204.532109 104.588718 
L 203.568611 108.579395 
L 200.594332 105.749642 
L 196.656555 106.910566 
L 202.605112 112.570072 
L 206.542889 111.409148 
L 207.506388 107.41847 
L 211.444165 106.257546 
L 210.480666 110.248223 
L 213.454945 113.077976 
L 215.381942 105.096622 
L 212.407663 102.266869 
L 208.469886 103.427793 
L 202.521329 97.768287 
L 206.459107 96.607363 
L 209.433385 99.437116 
L 210.396884 95.446439 
L 207.422605 92.616686 
L 208.386104 88.626009 
L 212.323881 87.465085 
L 211.360382 91.455762 
L 214.334661 94.285515 
L 216.261658 86.30416 
L 213.28738 83.474407 
L 214.250878 79.48373 
L 222.126433 77.161882 
L 221.162934 81.152559 
L 217.225157 82.313483 
L 220.199435 85.143236 
L 224.137212 83.982312 
L 227.111491 86.812065 
L 225.184494 94.793419 
L 222.210215 91.963666 
L 223.173714 87.972989 
L 219.235937 89.133913 
L 218.272438 93.12459 
L 221.246716 95.954343 
L 220.283218 99.94502 
L 217.308939 97.115268 
L 213.371162 98.276192 
L 219.319719 103.935698 
L 223.257496 102.774773 
L 224.220995 98.784096 
L 228.158772 97.623172 
L 227.195273 101.613849 
L 230.169552 104.443602 
L 232.096549 96.462248 
L 229.122271 93.632495 
L 230.085769 89.641818 
L 234.023546 88.480893 
L 233.060048 92.471571 
L 236.034326 95.301323 
L 237.961324 87.319969 
L 234.987045 84.490216 
L 231.049268 85.65114 
L 225.100711 79.991635 
L 229.038488 78.83071 
L 232.012767 81.660463 
L 232.976265 77.669786 
L 230.001987 74.840033 
L 230.965485 70.849356 
L 234.903263 69.688432 
L 233.939764 73.679109 
L 236.914042 76.508862 
L 238.84104 68.527508 
L 235.866761 65.697755 
L 236.83026 61.707077 
L 244.705814 59.385229 
L 243.742316 63.375906 
L 239.804538 64.53683 
L 242.778817 67.366583 
L 246.716594 66.205659 
L 247.680093 62.214982 
L 255.555647 59.893133 
L 254.592148 63.88381 
L 250.654371 65.044735 
L 253.62865 67.874488 
L 257.566427 66.713563 
L 260.540705 69.543316 
L 258.613708 77.524671 
L 255.639429 74.694918 
L 256.602928 70.704241 
L 252.665151 71.865165 
L 251.701652 75.855842 
L 247.763875 77.016766 
L 244.789597 74.187013 
L 248.727374 73.026089 
L 249.690872 69.035412 
L 241.815318 71.35726 
L 240.85182 75.347938 
L 243.826098 78.17769 
L 242.862599 82.168368 
L 239.888321 79.338615 
L 235.950544 80.499539 
L 241.899101 86.159045 
L 245.836878 84.998121 
L 246.800377 81.007443 
L 254.675931 78.685595 
L 253.712432 82.676272 
L 249.774655 83.837196 
L 252.748933 86.666949 
L 256.686711 85.506025 
L 257.650209 81.515348 
L 261.587986 80.354423 
L 260.624488 84.345101 
L 263.598766 87.174854 
L 265.525764 79.193499 
L 262.551485 76.363746 
L 263.514984 72.373069 
L 271.390538 70.051221 
L 270.427039 74.041898 
L 266.489262 75.202822 
L 269.463541 78.032575 
L 273.401318 76.871651 
L 274.364816 72.880974 
L 282.240371 70.559125 
L 281.276872 74.549802 
L 277.339095 75.710726 
L 280.313373 78.540479 
L 284.251151 77.379555 
L 287.225429 80.209308 
L 285.298432 88.190662 
L 282.324153 85.360909 
L 283.287652 81.370232 
L 279.349875 82.531156 
L 278.386376 86.521834 
L 274.448599 87.682758 
L 271.47432 84.853005 
L 275.412098 83.692081 
L 276.375596 79.701404 
L 268.500042 82.023252 
L 267.536543 86.013929 
L 270.510822 88.843682 
L 269.547323 92.834359 
L 266.573045 90.004606 
L 262.635268 91.165531 
L 268.583824 96.825037 
L 272.521602 95.664112 
L 273.4851 91.673435 
L 281.360655 89.351587 
L 280.397156 93.342264 
L 276.459379 94.503188 
L 279.433657 97.332941 
L 283.371434 96.172017 
L 286.345713 99.00177 
L 285.382214 102.992447 
L 282.407936 100.162694 
L 278.470159 101.323618 
L 284.418715 106.983124 
L 288.356493 105.8222 
L 291.330771 108.651952 
L 289.403774 116.633307 
L 286.429495 113.803554 
L 287.392994 109.812877 
L 283.455217 110.973801 
L 282.491718 114.964478 
L 285.465997 117.794231 
L 283.538999 125.775585 
L 280.564721 122.945832 
L 281.52822 118.955155 
L 277.590442 120.11608 
L 276.626944 124.106757 
L 272.689167 125.267681 
L 266.74061 119.608175 
L 270.678387 118.447251 
L 273.652665 121.277004 
L 274.616164 117.286327 
L 271.641885 114.456574 
L 272.605384 110.465897 
L 276.543161 109.304972 
L 275.579663 113.29565 
L 278.553941 116.125402 
L 280.480938 108.144048 
L 277.50666 105.314295 
L 273.568883 106.475219 
L 270.594604 103.645467 
L 274.532381 102.484542 
L 275.49588 98.493865 
L 267.620326 100.815714 
L 266.656827 104.806391 
L 269.631106 107.636144 
L 267.704108 115.617498 
L 264.72983 112.787745 
L 265.693328 108.797068 
L 261.755551 109.957992 
L 260.792053 113.948669 
L 256.854276 115.109594 
L 253.879997 112.279841 
L 257.817774 111.118917 
L 258.781273 107.128239 
L 250.905719 109.450088 
L 249.94222 113.440765 
L 246.004443 114.601689 
L 240.055886 108.942184 
L 243.993663 107.781259 
L 246.967941 110.611012 
L 247.93144 106.620335 
L 244.957162 103.790582 
L 245.92066 99.799905 
L 253.796215 97.478056 
L 252.832716 101.468734 
L 248.894939 102.629658 
L 251.869217 105.459411 
L 255.806994 104.298486 
L 256.770493 100.307809 
L 260.70827 99.146885 
L 259.744772 103.137562 
L 262.71905 105.967315 
L 264.646047 97.985961 
L 261.671769 95.156208 
L 257.733992 96.317132 
L 254.759713 93.487379 
L 258.69749 92.326455 
L 259.660989 88.335778 
L 251.785435 90.657626 
L 250.821936 94.648304 
L 246.884159 95.809228 
L 243.909881 92.979475 
L 247.847658 91.818551 
L 248.811156 87.827873 
L 240.935602 90.149722 
L 239.972103 94.140399 
L 242.946382 96.970152 
L 241.019385 104.951506 
L 238.045106 102.121753 
L 239.008605 98.131076 
L 235.070828 99.292001 
L 234.107329 103.282678 
L 237.081607 106.112431 
L 236.118109 110.103108 
L 233.14383 107.273355 
L 229.206053 108.434279 
L 235.15461 114.093785 
L 239.092387 112.932861 
L 242.066666 115.762614 
L 240.139668 123.743968 
L 237.16539 120.914215 
L 238.128889 116.923538 
L 234.191111 118.084462 
L 233.227613 122.075139 
L 229.289836 123.236064 
L 223.341279 117.576558 
L 227.279056 116.415634 
L 230.253334 119.245386 
L 231.216833 115.254709 
L 228.242554 112.424956 
L 224.304777 113.585881 
L 221.330499 110.756128 
L 225.268276 109.595203 
L 226.231775 105.604526 
L 218.35622 107.926375 
L 217.392722 111.917052 
L 220.367 114.746805 
L 219.403502 118.737482 
L 216.429223 115.907729 
L 212.491446 117.068653 
L 218.440003 122.728159 
L 222.37778 121.567235 
L 225.352059 124.396988 
L 224.38856 128.387665 
L 221.414281 125.557912 
L 217.476504 126.718836 
L 223.425061 132.378342 
L 227.362838 131.217418 
L 228.326337 127.226741 
L 236.201891 124.904892 
L 235.238393 128.895569 
L 231.300615 130.056494 
L 234.274894 132.886247 
L 238.212671 131.725322 
L 239.17617 127.734645 
L 243.113947 126.573721 
L 242.150448 130.564398 
L 245.124727 133.394151 
L 247.051724 125.412797 
L 244.077446 122.583044 
L 245.040944 118.592366 
L 252.916498 116.270518 
L 251.953 120.261195 
L 248.015223 121.422119 
L 250.989501 124.251872 
L 254.927278 123.090948 
L 255.890777 119.100271 
L 263.766331 116.778422 
L 262.802833 120.769099 
L 258.865055 121.930024 
L 261.839334 124.759777 
L 265.777111 123.598852 
L 268.751389 126.428605 
L 266.824392 134.40996 
L 263.850114 131.580207 
L 264.813612 127.58953 
L 260.875835 128.750454 
L 259.912337 132.741131 
L 255.974559 133.902055 
L 253.000281 131.072302 
L 256.938058 129.911378 
L 257.901557 125.920701 
L 250.026002 128.242549 
L 249.062504 132.233227 
L 252.036782 135.06298 
L 251.073284 139.053657 
L 248.099005 136.223904 
L 244.161228 137.384828 
L 250.109785 143.044334 
L 254.047562 141.88341 
L 255.011061 137.892732 
L 262.886615 135.570884 
L 261.923116 139.561561 
L 257.985339 140.722485 
L 260.959618 143.552238 
L 264.897395 142.391314 
L 267.871673 145.221067 
L 266.908175 149.211744 
L 263.933896 146.381991 
L 259.996119 147.542915 
L 265.944676 153.202421 
L 269.882453 152.041497 
L 272.856732 154.87125 
L 270.929734 162.852604 
L 267.955456 160.022851 
L 268.918954 156.032174 
L 264.981177 157.193098 
L 264.017679 161.183775 
L 260.079902 162.3447 
L 254.131345 156.685194 
L 258.069122 155.52427 
L 261.0434 158.354023 
L 262.006899 154.363345 
L 259.03262 151.533593 
L 255.094843 152.694517 
L 252.120565 149.864764 
L 256.058342 148.70384 
L 257.021841 144.713162 
L 249.146286 147.035011 
L 248.182788 151.025688 
L 251.157066 153.855441 
L 250.193567 157.846118 
L 247.219289 155.016365 
L 243.281512 156.17729 
L 249.230069 161.836795 
L 253.167846 160.675871 
L 256.142124 163.505624 
L 255.178626 167.496301 
L 252.204347 164.666548 
L 248.26657 165.827473 
L 254.215127 171.486978 
L 258.152904 170.326054 
L 259.116403 166.335377 
L 266.991957 164.013528 
L 266.028458 168.004206 
L 262.090681 169.16513 
L 265.06496 171.994883 
L 269.002737 170.833958 
L 271.977015 173.663711 
L 271.013517 177.654389 
L 268.039238 174.824636 
L 264.101461 175.98556 
L 270.050018 181.645066 
L 273.987795 180.484141 
L 276.962074 183.313894 
L 275.035076 191.295249 
L 272.060798 188.465496 
L 273.024297 184.474819 
L 269.086519 185.635743 
L 268.123021 189.62642 
L 271.097299 192.456173 
L 269.170302 200.437527 
L 266.196023 197.607774 
L 267.159522 193.617097 
L 263.221745 194.778021 
L 262.258246 198.768699 
L 258.320469 199.929623 
L 252.371912 194.270117 
L 256.309689 193.109193 
L 259.283968 195.938946 
L 260.247466 191.948269 
L 257.273188 189.118516 
L 258.236687 185.127838 
L 262.174464 183.966914 
L 261.210965 187.957591 
L 264.185244 190.787344 
L 266.112241 182.80599 
L 263.137962 179.976237 
L 259.200185 181.137161 
L 256.225907 178.307408 
L 260.163684 177.146484 
L 261.127183 173.155807 
L 253.251628 175.477656 
L 252.28813 179.468333 
L 255.262408 182.298086 
L 253.335411 190.27944 
L 250.361132 187.449687 
L 251.324631 183.45901 
L 247.386854 184.619934 
L 246.423355 188.610611 
L 249.397634 191.440364 
L 248.434135 195.431041 
L 245.459857 192.601288 
L 241.522079 193.762213 
L 247.470636 199.421718 
L 251.408414 198.260794 
L 254.382692 201.090547 
L 252.455695 209.071901 
L 249.481416 206.242149 
L 250.444915 202.251471 
L 246.507138 203.412396 
L 245.543639 207.403073 
L 248.517918 210.232826 
L 246.59092 218.21418 
L 243.616642 215.384427 
L 244.58014 211.39375 
L 240.642363 212.554674 
L 239.678865 216.545351 
L 235.741088 217.706276 
L 229.792531 212.04677 
L 233.730308 210.885846 
L 236.704586 213.715599 
L 237.668085 209.724921 
L 234.693806 206.895168 
L 235.657305 202.904491 
L 239.595082 201.743567 
L 238.631584 205.734244 
L 241.605862 208.563997 
L 243.532859 200.582643 
L 240.558581 197.75289 
L 236.620804 198.913814 
L 233.646525 196.084061 
L 237.584302 194.923137 
L 238.547801 190.93246 
L 230.672247 193.254308 
L 229.708748 197.244985 
L 232.683027 200.074738 
L 230.756029 208.056093 
L 227.781751 205.22634 
L 228.745249 201.235663 
L 224.807472 202.396587 
L 223.843974 206.387264 
L 219.906197 207.548188 
L 216.931918 204.718435 
L 220.869695 203.557511 
L 221.833194 199.566834 
L 213.95764 201.888683 
L 212.994141 205.87936 
L 209.056364 207.040284 
L 203.107807 201.380778 
L 207.045584 200.219854 
L 210.019862 203.049607 
L 210.983361 199.05893 
L 208.009083 196.229177 
L 204.071306 197.390101 
L 198.122749 191.730595 
L 202.060526 190.569671 
L 205.034804 193.399424 
L 205.998303 189.408747 
L 203.024024 186.578994 
L 203.987523 182.588317 
L 211.863077 180.266468 
L 210.899579 184.257145 
L 206.961801 185.41807 
L 209.93608 188.247822 
L 213.873857 187.086898 
L 216.848136 189.916651 
L 215.884637 193.907328 
L 212.910358 191.077575 
L 208.972581 192.2385 
L 214.921138 197.898005 
L 218.858915 196.737081 
L 219.822414 192.746404 
L 223.760191 191.58548 
L 222.796693 195.576157 
L 225.770971 198.40591 
L 227.697968 190.424555 
L 224.72369 187.594803 
L 220.785913 188.755727 
L 214.837356 183.096221 
L 218.775133 181.935297 
L 221.749411 184.76505 
L 222.71291 180.774372 
L 219.738632 177.94462 
L 220.70213 173.953942 
L 224.639907 172.793018 
L 223.676409 176.783695 
L 226.650687 179.613448 
L 228.577684 171.632094 
L 225.603406 168.802341 
L 226.566905 164.811664 
L 234.442459 162.489815 
L 233.47896 166.480492 
L 229.541183 167.641417 
L 232.515462 170.47117 
L 236.453239 169.310245 
L 239.427517 172.139998 
L 237.50052 180.121353 
L 234.526241 177.2916 
L 235.48974 173.300923 
L 231.551963 174.461847 
L 230.588464 178.452524 
L 233.562743 181.282277 
L 232.599244 185.272954 
L 229.624966 182.443201 
L 225.687188 183.604125 
L 231.635745 189.263631 
L 235.573523 188.102707 
L 236.537021 184.11203 
L 240.474798 182.951105 
L 239.5113 186.941783 
L 242.485578 189.771536 
L 244.412575 181.790181 
L 241.438297 178.960428 
L 242.401796 174.969751 
L 246.339573 173.808827 
L 245.376074 177.799504 
L 248.350353 180.629257 
L 250.27735 172.647903 
L 247.303071 169.81815 
L 243.365294 170.979074 
L 237.416737 165.319568 
L 241.354515 164.158644 
L 244.328793 166.988397 
L 245.292292 162.99772 
L 242.318013 160.167967 
L 238.380236 161.328891 
L 235.405958 158.499138 
L 239.343735 157.338214 
L 240.307233 153.347537 
L 232.431679 155.669385 
L 231.46818 159.660062 
L 227.530403 160.820987 
L 221.581846 155.161481 
L 225.519623 154.000557 
L 228.493902 156.83031 
L 229.457401 152.839632 
L 226.483122 150.009879 
L 227.446621 146.019202 
L 235.322175 143.697354 
L 234.358676 147.688031 
L 230.420899 148.848955 
L 233.395178 151.678708 
L 237.332955 150.517784 
L 238.296454 146.527107 
L 242.234231 145.366182 
L 241.270732 149.35686 
L 244.24501 152.186612 
L 246.172008 144.205258 
L 243.197729 141.375505 
L 239.259952 142.536429 
L 236.285674 139.706677 
L 240.223451 138.545752 
L 241.18695 134.555075 
L 233.311395 136.876924 
L 232.347897 140.867601 
L 228.410119 142.028525 
L 225.435841 139.198772 
L 229.373618 138.037848 
L 230.337117 134.047171 
L 222.461563 136.369019 
L 221.498064 140.359696 
L 224.472342 143.189449 
L 222.545345 151.170804 
L 219.571067 148.341051 
L 220.534565 144.350374 
L 216.596788 145.511298 
L 215.633289 149.501975 
L 218.607568 152.331728 
L 217.644069 156.322405 
L 214.669791 153.492652 
L 210.732014 154.653577 
L 216.680571 160.313082 
L 220.618348 159.152158 
L 223.592626 161.981911 
L 221.665629 169.963265 
L 218.69135 167.133512 
L 219.654849 163.142835 
L 215.717072 164.303759 
L 214.753573 168.294437 
L 217.727852 171.12419 
L 215.800854 179.105544 
L 212.826576 176.275791 
L 213.790075 172.285114 
L 209.852297 173.446038 
L 208.888799 177.436715 
L 204.951022 178.597639 
L 199.002465 172.938134 
L 202.940242 171.777209 
L 205.91452 174.606962 
L 206.878019 170.616285 
L 203.903741 167.786532 
L 204.867239 163.795855 
L 208.805016 162.634931 
L 207.841518 166.625608 
L 210.815796 169.455361 
L 212.742793 161.474007 
L 209.768515 158.644254 
L 205.830738 159.805178 
L 202.856459 156.975425 
L 206.794236 155.814501 
L 207.757735 151.823824 
L 199.882181 154.145672 
L 198.918682 158.136349 
L 201.892961 160.966102 
L 199.965963 168.947457 
L 196.991685 166.117704 
L 197.955184 162.127026 
L 194.017406 163.287951 
L 193.053908 167.278628 
L 196.028186 170.108381 
L 195.064688 174.099058 
L 192.090409 171.269305 
L 188.152632 172.430229 
L 194.101189 178.089735 
L 198.038966 176.928811 
L 201.013245 179.758564 
L 199.086247 187.739918 
L 196.111969 184.910165 
L 197.075467 180.919488 
L 193.13769 182.080412 
L 192.174192 186.071089 
L 188.236414 187.232014 
L 182.287858 181.572508 
L 186.225635 180.411584 
L 189.199913 183.241337 
L 190.163412 179.250659 
L 187.189133 176.420906 
L 183.251356 177.581831 
L 180.277078 174.752078 
L 184.214855 173.591154 
L 185.178354 169.600476 
L 177.302799 171.922325 
L 176.339301 175.913002 
L 179.313579 178.742755 
L 178.35008 182.733432 
L 175.375802 179.903679 
L 171.438025 181.064604 
L 177.386582 186.724109 
L 181.324359 185.563185 
L 184.298637 188.392938 
L 183.335139 192.383615 
L 180.36086 189.553862 
L 176.423083 190.714787 
L 182.37164 196.374292 
L 186.309417 195.213368 
L 187.272916 191.222691 
L 195.14847 188.900842 
L 194.184971 192.89152 
L 190.247194 194.052444 
L 193.221473 196.882197 
L 197.15925 195.721272 
L 200.133528 198.551025 
L 199.17003 202.541702 
L 196.195751 199.71195 
L 192.257974 200.872874 
L 198.206531 206.53238 
L 202.144308 205.371455 
L 205.118587 208.201208 
L 203.191589 216.182563 
L 200.217311 213.35281 
L 201.18081 209.362133 
L 197.243032 210.523057 
L 196.279534 214.513734 
L 199.253812 217.343487 
L 197.326815 225.324841 
L 194.352536 222.495088 
L 195.316035 218.504411 
L 191.378258 219.665335 
L 190.414759 223.656013 
L 186.476982 224.816937 
L 180.528425 219.157431 
L 184.466202 217.996507 
L 187.440481 220.82626 
L 188.403979 216.835582 
L 185.429701 214.00583 
L 186.3932 210.015152 
L 190.330977 208.854228 
L 189.367478 212.844905 
L 192.341757 215.674658 
L 194.268754 207.693304 
L 191.294475 204.863551 
L 187.356698 206.024475 
L 184.38242 203.194722 
L 188.320197 202.033798 
L 189.283696 198.043121 
L 181.408141 200.364969 
L 180.444643 204.355647 
L 183.418921 207.1854 
L 181.491924 215.166754 
L 178.517645 212.337001 
L 179.481144 208.346324 
L 175.543367 209.507248 
L 174.579868 213.497925 
L 170.642091 214.658849 
L 167.667813 211.829097 
L 171.60559 210.668172 
L 172.569088 206.677495 
L 164.693534 208.999344 
L 163.730036 212.990021 
L 159.792258 214.150945 
L 153.843701 208.491439 
L 157.781479 207.330515 
L 160.755757 210.160268 
L 161.719256 206.169591 
L 158.744977 203.339838 
L 154.8072 204.500762 
L 148.858643 198.841256 
L 152.79642 197.680332 
L 155.770699 200.510085 
L 156.734197 196.519408 
L 153.759919 193.689655 
L 154.723418 189.698978 
L 162.598972 187.377129 
L 161.635473 191.367806 
L 157.697696 192.528731 
L 160.671975 195.358484 
L 164.609752 194.197559 
L 167.58403 197.027312 
L 166.620532 201.017989 
L 163.646253 198.188236 
L 159.708476 199.349161 
L 165.657033 205.008667 
L 169.59481 203.847742 
L 170.558309 199.857065 
L 174.496086 198.696141 
L 173.532587 202.686818 
L 176.506866 205.516571 
L 178.433863 197.535217 
L 175.459584 194.705464 
L 171.521807 195.866388 
L 165.57325 190.206882 
L 169.511027 189.045958 
L 172.485306 191.875711 
L 173.448805 187.885034 
L 170.474526 185.055281 
L 166.536749 186.216205 
L 163.562471 183.386452 
L 167.500248 182.225528 
L 168.463746 178.234851 
L 160.588192 180.556699 
L 159.624693 184.547376 
L 155.686916 185.708301 
L 149.738359 180.048795 
L 153.676136 178.887871 
L 156.650415 181.717623 
L 157.613914 177.726946 
L 154.639635 174.897193 
L 155.603134 170.906516 
L 163.478688 168.584668 
L 162.515189 172.575345 
L 158.577412 173.736269 
L 161.551691 176.566022 
L 165.489468 175.405098 
L 166.452967 171.414421 
L 170.390744 170.253496 
L 169.427245 174.244173 
L 172.401523 177.073926 
L 174.328521 169.092572 
L 171.354242 166.262819 
L 167.416465 167.423743 
L 164.442187 164.593991 
L 168.379964 163.433066 
L 169.343463 159.442389 
L 161.467908 161.764238 
L 160.50441 165.754915 
L 156.566632 166.915839 
L 153.592354 164.086086 
L 157.530131 162.925162 
L 158.49363 158.934485 
L 150.618076 161.256333 
L 149.654577 165.24701 
L 152.628855 168.076763 
L 150.701858 176.058118 
L 147.72758 173.228365 
L 148.691078 169.237688 
L 144.753301 170.398612 
L 143.789802 174.389289 
L 146.764081 177.219042 
L 145.800582 181.209719 
L 142.826304 178.379966 
L 138.888527 179.54089 
L 144.837084 185.200396 
L 148.774861 184.039472 
L 151.749139 186.869225 
L 149.822142 194.850579 
L 146.847863 192.020826 
L 147.811362 188.030149 
L 143.873585 189.191073 
L 142.910086 193.181751 
L 138.972309 194.342675 
L 133.023752 188.683169 
L 136.961529 187.522245 
L 139.935808 190.351998 
L 140.899306 186.361321 
L 137.925028 183.531568 
L 133.987251 184.692492 
L 131.012972 181.862739 
L 134.950749 180.701815 
L 135.914248 176.711138 
L 128.038694 179.032986 
L 127.075195 183.023663 
L 130.049474 185.853416 
L 129.085975 189.844093 
L 126.111697 187.01434 
L 122.173919 188.175265 
L 128.122476 193.83477 
L 132.060253 192.673846 
L 135.034532 195.503599 
L 134.071033 199.494276 
L 131.096755 196.664523 
L 127.158978 197.825448 
L 133.107535 203.484953 
L 137.045312 202.324029 
L 138.00881 198.333352 
L 145.884365 196.011503 
L 144.920866 200.002181 
L 140.983089 201.163105 
L 143.957367 203.992858 
L 147.895145 202.831934 
L 150.869423 205.661686 
L 149.905924 209.652364 
L 146.931646 206.822611 
L 142.993869 207.983535 
L 148.942426 213.643041 
L 152.880203 212.482116 
L 155.854481 215.311869 
L 153.927484 223.293224 
L 150.953205 220.463471 
L 151.916704 216.472794 
L 147.978927 217.633718 
L 147.015428 221.624395 
L 143.077651 222.785319 
L 137.129094 217.125814 
L 141.066871 215.964889 
L 144.04115 218.794642 
L 145.004649 214.803965 
L 142.03037 211.974212 
L 138.092593 213.135136 
L 135.118314 210.305383 
L 139.056092 209.144459 
L 140.01959 205.153782 
L 132.144036 207.475631 
L 131.180537 211.466308 
L 134.154816 214.296061 
L 133.191317 218.286738 
L 130.217039 215.456985 
L 126.279262 216.617909 
L 132.227818 222.277415 
L 136.165596 221.116491 
L 139.139874 223.946244 
L 138.176375 227.936921 
L 135.202097 225.107168 
L 131.26432 226.268092 
L 137.212877 231.927598 
L 141.150654 230.766674 
L 142.114153 226.775997 
L 149.989707 224.454148 
L 149.026208 228.444825 
L 145.088431 229.605749 
L 148.062709 232.435502 
L 152.000487 231.274578 
L 152.963985 227.283901 
L 156.901762 226.122977 
L 155.938264 230.113654 
L 158.912542 232.943407 
L 160.83954 224.962052 
L 157.865261 222.132299 
L 158.82876 218.141622 
L 166.704314 215.819774 
L 165.740815 219.810451 
L 161.803038 220.971375 
L 164.777317 223.801128 
L 168.715094 222.640204 
L 169.678592 218.649527 
L 177.554147 216.327678 
L 176.590648 220.318355 
L 172.652871 221.47928 
L 175.627149 224.309032 
L 179.564927 223.148108 
L 182.539205 225.977861 
L 180.612208 233.959215 
L 177.637929 231.129463 
L 178.601428 227.138785 
L 174.663651 228.29971 
L 173.700152 232.290387 
L 169.762375 233.451311 
L 166.788096 230.621558 
L 170.725874 229.460634 
L 171.689372 225.469957 
L 163.813818 227.791805 
L 162.850319 231.782482 
L 165.824598 234.612235 
L 164.861099 238.602912 
L 161.886821 235.77316 
L 157.949044 236.934084 
L 163.897601 242.59359 
L 167.835378 241.432665 
L 168.798876 237.441988 
L 176.674431 235.12014 
L 175.710932 239.110817 
L 171.773155 240.271741 
L 174.747433 243.101494 
L 178.68521 241.94057 
L 179.648709 237.949893 
L 183.586486 236.788968 
L 182.622988 240.779645 
L 185.597266 243.609398 
L 187.524263 235.628044 
L 184.549985 232.798291 
L 185.513483 228.807614 
L 193.389038 226.485765 
L 192.425539 230.476443 
L 188.487762 231.637367 
L 191.46204 234.46712 
L 195.399818 233.306196 
L 198.374096 236.135948 
L 196.447099 244.117303 
L 193.47282 241.28755 
L 194.436319 237.296873 
L 190.498542 238.457797 
L 189.535043 242.448474 
L 192.509322 245.278227 
L 191.545823 249.268904 
L 188.571544 246.439151 
L 184.633767 247.600076 
L 190.582324 253.259581 
L 194.520101 252.098657 
L 195.4836 248.10798 
L 199.421377 246.947056 
L 198.457879 250.937733 
L 201.432157 253.767486 
L 203.359154 245.786131 
L 200.384876 242.956378 
L 201.348375 238.965701 
L 205.286152 237.804777 
L 204.322653 241.795454 
L 207.296931 244.625207 
L 209.223929 236.643853 
L 206.24965 233.8141 
L 202.311873 234.975024 
L 196.363316 229.315518 
L 200.301093 228.154594 
L 203.275372 230.984347 
L 204.23887 226.99367 
L 201.264592 224.163917 
L 202.228091 220.17324 
L 206.165868 219.012315 
L 205.202369 223.002993 
L 208.176648 225.832746 
L 210.103645 217.851391 
L 207.129366 215.021638 
L 208.092865 211.030961 
L 215.968419 208.709113 
L 215.004921 212.69979 
L 211.067144 213.860714 
L 214.041422 216.690467 
L 217.979199 215.529543 
L 218.942698 211.538866 
L 226.818252 209.217017 
L 225.854753 213.207694 
L 221.916976 214.368618 
L 224.891255 217.198371 
L 228.829032 216.037447 
L 231.80331 218.8672 
L 229.876313 226.848554 
L 226.902035 224.018801 
L 227.865533 220.028124 
L 223.927756 221.189048 
L 222.964257 225.179726 
L 219.02648 226.34065 
L 216.052202 223.510897 
L 219.989979 222.349973 
L 220.953478 218.359296 
L 213.077923 220.681144 
L 212.114425 224.671821 
L 215.088703 227.501574 
L 214.125205 231.492251 
L 211.150926 228.662498 
L 207.213149 229.823423 
L 213.161706 235.482929 
L 217.099483 234.322004 
L 218.062982 230.331327 
L 225.938536 228.009479 
L 224.975037 232.000156 
L 221.03726 233.16108 
L 224.011539 235.990833 
L 227.949316 234.829909 
L 230.923594 237.659661 
L 229.960096 241.650339 
L 226.985817 238.820586 
L 223.04804 239.98151 
L 228.996597 245.641016 
L 232.934374 244.480092 
L 235.908653 247.309844 
L 233.981655 255.291199 
L 231.007377 252.461446 
L 231.970875 248.470769 
L 228.033098 249.631693 
L 227.0696 253.62237 
L 230.043878 256.452123 
L 228.116881 264.433477 
L 225.142602 261.603724 
L 226.106101 257.613047 
L 222.168324 258.773972 
L 221.204825 262.764649 
L 217.267048 263.925573 
L 211.318491 258.266067 
L 215.256268 257.105143 
L 218.230547 259.934896 
L 219.194045 255.944219 
L 216.219767 253.114466 
L 217.183266 249.123789 
L 221.121043 247.962864 
L 220.157544 251.953542 
L 223.131822 254.783294 
L 225.05882 246.80194 
L 222.084541 243.972187 
L 218.146764 245.133111 
L 215.172486 242.303359 
L 219.110263 241.142434 
L 220.073762 237.151757 
L 212.198207 239.473606 
L 211.234709 243.464283 
L 214.208987 246.294036 
L 212.28199 254.27539 
L 209.307711 251.445637 
L 210.27121 247.45496 
L 206.333433 248.615884 
L 205.369934 252.606561 
L 208.344213 255.436314 
L 207.380714 259.426991 
L 204.406435 256.597239 
L 200.468658 257.758163 
L 206.417215 263.417669 
L 210.354992 262.256744 
L 213.329271 265.086497 
L 211.402274 273.067852 
L 208.427995 270.238099 
L 209.391494 266.247422 
L 205.453717 267.408346 
L 204.490218 271.399023 
L 200.552441 272.559947 
L 194.603884 266.900441 
L 198.541661 265.739517 
L 201.515939 268.56927 
L 202.479438 264.578593 
L 199.50516 261.74884 
L 195.567383 262.909764 
L 192.593104 260.080011 
L 196.530881 258.919087 
L 197.49438 254.92841 
L 189.618826 257.250258 
L 188.655327 261.240936 
L 191.629605 264.070689 
L 190.666107 268.061366 
L 187.691828 265.231613 
L 183.754051 266.392537 
L 189.702608 272.052043 
L 193.640385 270.891119 
L 196.614664 273.720872 
L 195.651165 277.711549 
L 192.676887 274.881796 
L 188.739109 276.04272 
L 194.687666 281.702226 
L 198.625444 280.541302 
L 199.588942 276.550624 
L 207.464496 274.228776 
L 206.500998 278.219453 
L 202.563221 279.380377 
L 205.537499 282.21013 
L 209.475276 281.049206 
L 210.438775 277.058529 
L 214.376552 275.897604 
L 213.413053 279.888282 
L 216.387332 282.718035 
L 218.314329 274.73668 
L 215.340051 271.906927 
L 216.303549 267.91625 
L 224.179104 265.594402 
L 223.215605 269.585079 
L 219.277828 270.746003 
L 222.252106 273.575756 
L 226.189883 272.414832 
L 229.164162 275.244585 
L 227.237165 283.225939 
L 224.262886 280.396186 
L 225.226385 276.405509 
L 221.288608 277.566433 
L 220.325109 281.55711 
L 223.299387 284.386863 
L 222.335889 288.37754 
L 219.36161 285.547787 
L 215.423833 286.708712 
L 221.37239 292.368218 
L 225.310167 291.207293 
L 226.273666 287.216616 
L 230.211443 286.055692 
L 229.247944 290.046369 
L 232.222223 292.876122 
L 234.14922 284.894768 
L 231.174942 282.065015 
L 232.13844 278.074337 
L 236.076218 276.913413 
L 235.112719 280.90409 
L 238.086997 283.733843 
L 240.013995 275.752489 
L 237.039716 272.922736 
L 233.101939 274.08366 
L 227.153382 268.424155 
L 231.091159 267.26323 
L 234.065438 270.092983 
L 235.028936 266.102306 
L 232.054658 263.272553 
L 233.018157 259.281876 
L 236.955934 258.120952 
L 235.992435 262.111629 
L 238.966713 264.941382 
L 240.893711 256.960027 
L 237.919432 254.130275 
L 238.882931 250.139597 
L 246.758485 247.817749 
L 245.794987 251.808426 
L 241.857209 252.96935 
L 244.831488 255.799103 
L 248.769265 254.638179 
L 251.743544 257.467932 
L 249.816546 265.449286 
L 246.842268 262.619533 
L 247.805766 258.628856 
L 243.867989 259.78978 
L 242.904491 263.780457 
L 245.878769 266.61021 
L 244.91527 270.600888 
L 241.940992 267.771135 
L 238.003215 268.932059 
L 243.951772 274.591565 
L 247.889549 273.43064 
L 248.853048 269.439963 
L 252.790825 268.279039 
L 251.827326 272.269716 
L 254.801605 275.099469 
L 256.728602 267.118115 
L 253.754323 264.288362 
L 254.717822 260.297685 
L 258.655599 259.13676 
L 257.6921 263.127438 
L 260.666379 265.95719 
L 262.593376 257.975836 
L 259.619098 255.146083 
L 255.681321 256.307008 
L 249.732764 250.647502 
L 253.670541 249.486577 
L 256.644819 252.31633 
L 257.608318 248.325653 
L 254.63404 245.4959 
L 250.696262 246.656825 
L 247.721984 243.827072 
L 251.659761 242.666147 
L 252.62326 238.67547 
L 244.747705 240.997319 
L 243.784207 244.987996 
L 239.84643 246.14892 
L 233.897873 240.489414 
L 237.83565 239.32849 
L 240.809928 242.158243 
L 241.773427 238.167566 
L 238.799149 235.337813 
L 234.861371 236.498737 
L 228.912814 230.839231 
L 232.850592 229.678307 
L 235.82487 232.50806 
L 236.788369 228.517383 
L 233.81409 225.68763 
L 234.777589 221.696953 
L 242.653143 219.375104 
L 241.689644 223.365781 
L 237.751867 224.526706 
L 240.726146 227.356459 
L 244.663923 226.195534 
L 247.638201 229.025287 
L 246.674703 233.015964 
L 243.700424 230.186212 
L 239.762647 231.347136 
L 245.711204 237.006642 
L 249.648981 235.845717 
L 250.61248 231.85504 
L 254.550257 230.694116 
L 253.586758 234.684793 
L 256.561037 237.514546 
L 258.488034 229.533192 
L 255.513756 226.703439 
L 251.575979 227.864363 
L 245.627422 222.204857 
L 249.565199 221.043933 
L 252.539477 223.873686 
L 253.502976 219.883009 
L 250.528697 217.053256 
L 251.492196 213.062579 
L 255.429973 211.901654 
L 254.466475 215.892332 
L 257.440753 218.722084 
L 259.36775 210.74073 
L 256.393472 207.910977 
L 257.356971 203.9203 
L 265.232525 201.598451 
L 264.269026 205.589129 
L 260.331249 206.750053 
L 263.305527 209.579806 
L 267.243305 208.418882 
L 270.217583 211.248634 
L 268.290586 219.229989 
L 265.316307 216.400236 
L 266.279806 212.409559 
L 262.342029 213.570483 
L 261.37853 217.56116 
L 264.352809 220.390913 
L 263.38931 224.38159 
L 260.415031 221.551837 
L 256.477254 222.712762 
L 262.425811 228.372267 
L 266.363588 227.211343 
L 267.327087 223.220666 
L 271.264864 222.059742 
L 270.301366 226.050419 
L 273.275644 228.880172 
L 275.202641 220.898817 
L 272.228363 218.069065 
L 273.191862 214.078387 
L 277.129639 212.917463 
L 276.16614 216.90814 
L 279.140418 219.737893 
L 281.067416 211.756539 
L 278.093137 208.926786 
L 274.15536 210.08771 
L 268.206803 204.428204 
L 272.14458 203.26728 
L 275.118859 206.097033 
L 276.082358 202.106356 
L 273.108079 199.276603 
L 274.071578 195.285926 
L 278.009355 194.125002 
L 277.045856 198.115679 
L 280.020135 200.945432 
L 281.947132 192.964077 
L 278.972853 190.134324 
L 279.936352 186.143647 
L 287.811906 183.821799 
L 286.848408 187.812476 
L 282.910631 188.9734 
L 285.884909 191.803153 
L 289.822686 190.642229 
L 290.786185 186.651552 
L 298.661739 184.329703 
L 297.69824 188.32038 
L 293.760463 189.481304 
L 296.734742 192.311057 
L 300.672519 191.150133 
L 303.646797 193.979886 
L 301.7198 201.96124 
L 298.745522 199.131487 
L 299.70902 195.14081 
L 295.771243 196.301735 
L 294.807745 200.292412 
L 290.869967 201.453336 
L 287.895689 198.623583 
L 291.833466 197.462659 
L 292.796965 193.471982 
L 284.92141 195.79383 
L 283.957912 199.784507 
L 286.93219 202.61426 
L 285.968692 206.604937 
L 282.994413 203.775184 
L 279.056636 204.936109 
L 285.005193 210.595615 
L 288.94297 209.43469 
L 289.906469 205.444013 
L 297.782023 203.122165 
L 296.818524 207.112842 
L 292.880747 208.273766 
L 295.855026 211.103519 
L 299.792803 209.942595 
L 302.767081 212.772348 
L 301.803583 216.763025 
L 298.829304 213.933272 
L 294.891527 215.094196 
L 300.840084 220.753702 
L 304.777861 219.592778 
L 307.75214 222.422531 
L 305.825142 230.403885 
L 302.850864 227.574132 
L 303.814362 223.583455 
L 299.876585 224.744379 
L 298.913087 228.735056 
L 301.887365 231.564809 
L 299.960368 239.546163 
L 296.986089 236.716411 
L 297.949588 232.725733 
L 294.011811 233.886658 
L 293.048312 237.877335 
L 289.110535 239.038259 
L 283.161978 233.378753 
L 287.099755 232.217829 
L 290.074034 235.047582 
L 291.037532 231.056905 
L 288.063254 228.227152 
L 289.026753 224.236475 
L 292.96453 223.07555 
L 292.001031 227.066228 
L 294.975309 229.89598 
L 296.902307 221.914626 
L 293.928028 219.084873 
L 289.990251 220.245798 
L 287.015973 217.416045 
L 290.95375 216.25512 
L 291.917249 212.264443 
L 284.041694 214.586292 
L 283.078196 218.576969 
L 286.052474 221.406722 
L 284.125477 229.388076 
L 281.151198 226.558323 
L 282.114697 222.567646 
L 278.17692 223.72857 
L 277.213421 227.719247 
L 280.1877 230.549 
L 279.224201 234.539678 
L 276.249922 231.709925 
L 272.312145 232.870849 
L 278.260702 238.530355 
L 282.198479 237.36943 
L 285.172758 240.199183 
L 283.245761 248.180538 
L 280.271482 245.350785 
L 281.234981 241.360108 
L 277.297204 242.521032 
L 276.333705 246.511709 
L 272.395928 247.672633 
L 266.447371 242.013127 
L 270.385148 240.852203 
L 273.359427 243.681956 
L 274.322925 239.691279 
L 271.348647 236.861526 
L 267.41087 238.02245 
L 264.436591 235.192697 
L 268.374368 234.031773 
L 269.337867 230.041096 
L 261.462313 232.362945 
L 260.498814 236.353622 
L 263.473092 239.183375 
L 262.509594 243.174052 
L 259.535315 240.344299 
L 255.597538 241.505223 
L 261.546095 247.164729 
L 265.483872 246.003805 
L 268.458151 248.833558 
L 267.494652 252.824235 
L 264.520374 249.994482 
L 260.582596 251.155406 
L 266.531153 256.814912 
L 270.468931 255.653988 
L 271.432429 251.66331 
L 279.307983 249.341462 
L 278.344485 253.332139 
L 274.406708 254.493063 
L 277.380986 257.322816 
L 281.318763 256.161892 
L 282.282262 252.171215 
L 286.220039 251.010291 
L 285.25654 255.000968 
L 288.230819 257.830721 
L 290.157816 249.849366 
L 287.183538 247.019613 
L 288.147036 243.028936 
L 296.022591 240.707088 
L 295.059092 244.697765 
L 291.121315 245.858689 
L 294.095593 248.688442 
L 298.03337 247.527518 
L 301.007649 250.357271 
L 299.080652 258.338625 
L 296.106373 255.508872 
L 297.069872 251.518195 
L 293.132095 252.679119 
L 292.168596 256.669796 
L 295.142874 259.499549 
L 294.179376 263.490226 
L 291.205097 260.660474 
L 287.26732 261.821398 
L 293.215877 267.480904 
L 297.153654 266.319979 
L 298.117153 262.329302 
L 302.05493 261.168378 
L 301.091431 265.159055 
L 304.06571 267.988808 
L 305.992707 260.007454 
L 303.018429 257.177701 
L 303.981927 253.187024 
L 307.919705 252.026099 
L 306.956206 256.016776 
L 309.930484 258.846529 
L 311.857482 250.865175 
L 308.883203 248.035422 
L 304.945426 249.196346 
L 298.996869 243.536841 
L 302.934646 242.375916 
L 305.908925 245.205669 
L 306.872423 241.214992 
L 303.898145 238.385239 
L 304.861644 234.394562 
L 308.799421 233.233638 
L 307.835922 237.224315 
L 310.810201 240.054068 
L 312.737198 232.072713 
L 309.762919 229.242961 
L 310.726418 225.252283 
L 318.601972 222.930435 
L 317.638474 226.921112 
L 313.700696 228.082036 
L 316.674975 230.911789 
L 320.612752 229.750865 
L 323.587031 232.580618 
L 321.660033 240.561972 
L 318.685755 237.732219 
L 319.649253 233.741542 
L 315.711476 234.902466 
L 314.747978 238.893144 
L 317.722256 241.722896 
L 316.758757 245.713574 
L 313.784479 242.883821 
L 309.846702 244.044745 
L 315.795259 249.704251 
L 319.733036 248.543326 
L 320.696535 244.552649 
L 324.634312 243.391725 
L 323.670813 247.382402 
L 326.645092 250.212155 
L 328.572089 242.230801 
L 325.59781 239.401048 
L 326.561309 235.410371 
L 330.499086 234.249446 
L 329.535588 238.240124 
L 332.509866 241.069877 
L 334.436863 233.088522 
L 331.462585 230.258769 
L 327.524808 231.419694 
L 321.576251 225.760188 
L 325.514028 224.599264 
L 328.488306 227.429016 
L 329.451805 223.438339 
L 326.477527 220.608586 
L 322.539749 221.769511 
L 319.565471 218.939758 
L 323.503248 217.778833 
L 324.466747 213.788156 
L 316.591192 216.110005 
L 315.627694 220.100682 
L 311.689917 221.261606 
L 305.74136 215.6021 
L 309.679137 214.441176 
L 312.653415 217.270929 
L 313.616914 213.280252 
L 310.642636 210.450499 
L 306.704858 211.611423 
L 300.756301 205.951917 
L 304.694079 204.790993 
L 307.668357 207.620746 
L 308.631856 203.630069 
L 305.657577 200.800316 
L 306.621076 196.809639 
L 314.49663 194.48779 
L 313.533132 198.478468 
L 309.595354 199.639392 
L 312.569633 202.469145 
L 316.50741 201.30822 
L 319.481688 204.137973 
L 318.51819 208.12865 
L 315.543911 205.298898 
L 311.606134 206.459822 
L 317.554691 212.119328 
L 321.492468 210.958403 
L 322.455967 206.967726 
L 326.393744 205.806802 
L 325.430245 209.797479 
L 328.404524 212.627232 
L 330.331521 204.645878 
L 327.357243 201.816125 
L 323.419466 202.977049 
L 317.470909 197.317543 
L 321.408686 196.156619 
L 324.382964 198.986372 
L 325.346463 194.995695 
L 322.372184 192.165942 
L 318.434407 193.326866 
L 315.460129 190.497113 
L 319.397906 189.336189 
L 320.361405 185.345512 
L 312.48585 187.66736 
L 311.522352 191.658037 
L 307.584575 192.818962 
L 301.636018 187.159456 
L 305.573795 185.998532 
L 308.548073 188.828285 
L 309.511572 184.837607 
L 306.537293 182.007855 
L 307.500792 178.017177 
L 315.376346 175.695329 
L 314.412848 179.686006 
L 310.475071 180.84693 
L 313.449349 183.676683 
L 317.387126 182.515759 
L 318.350625 178.525082 
L 322.288402 177.364157 
L 321.324903 181.354835 
L 324.299182 184.184588 
L 326.226179 176.203233 
L 323.251901 173.37348 
L 319.314123 174.534405 
L 316.339845 171.704652 
L 320.277622 170.543727 
L 321.241121 166.55305 
L 313.365567 168.874899 
L 312.402068 172.865576 
L 308.464291 174.0265 
L 305.490012 171.196747 
L 309.427789 170.035823 
L 310.391288 166.045146 
L 302.515734 168.366994 
L 301.552235 172.357672 
L 304.526514 175.187424 
L 302.599516 183.168779 
L 299.625238 180.339026 
L 300.588736 176.348349 
L 296.650959 177.509273 
L 295.687461 181.49995 
L 291.749684 182.660874 
L 288.775405 179.831122 
L 292.713182 178.670197 
L 293.676681 174.67952 
L 285.801127 177.001369 
L 284.837628 180.992046 
L 280.899851 182.15297 
L 274.951294 176.493464 
L 278.889071 175.33254 
L 281.863349 178.162293 
L 282.826848 174.171616 
L 279.85257 171.341863 
L 275.914793 172.502787 
L 269.966236 166.843281 
L 273.904013 165.682357 
L 276.878291 168.51211 
L 277.84179 164.521433 
L 274.867511 161.69168 
L 275.83101 157.701003 
L 283.706564 155.379154 
L 282.743066 159.369831 
L 278.805289 160.530756 
L 281.779567 163.360508 
L 285.717344 162.199584 
L 288.691623 165.029337 
L 287.728124 169.020014 
L 284.753845 166.190261 
L 280.816068 167.351186 
L 286.764625 173.010691 
L 290.702402 171.849767 
L 291.665901 167.85909 
L 295.603678 166.698166 
L 294.64018 170.688843 
L 297.614458 173.518596 
L 299.541455 165.537241 
L 296.567177 162.707489 
L 292.6294 163.868413 
L 286.680843 158.208907 
L 290.61862 157.047983 
L 293.592898 159.877736 
L 294.556397 155.887059 
L 291.582119 153.057306 
L 287.644341 154.21823 
L 284.670063 151.388477 
L 288.60784 150.227553 
L 289.571339 146.236876 
L 281.695784 148.558724 
L 280.732286 152.549401 
L 276.794509 153.710326 
L 270.845952 148.05082 
L 274.783729 146.889895 
L 277.758007 149.719648 
L 278.721506 145.728971 
L 275.747228 142.899218 
L 271.80945 144.060143 
L 265.860893 138.400637 
L 269.798671 137.239713 
L 272.772949 140.069465 
L 273.736448 136.078788 
L 270.762169 133.249035 
L 271.725668 129.258358 
L 279.601222 126.93651 
L 278.637724 130.927187 
L 274.699946 132.088111 
L 277.674225 134.917864 
L 281.612002 133.75694 
L 284.58628 136.586693 
L 283.622782 140.57737 
L 280.648503 137.747617 
L 276.710726 138.908541 
L 282.659283 144.568047 
L 286.59706 143.407123 
L 287.560559 139.416446 
L 291.498336 138.255521 
L 290.534837 142.246198 
L 293.509116 145.075951 
L 295.436113 137.094597 
L 292.461835 134.264844 
L 288.524058 135.425768 
L 282.575501 129.766263 
L 286.513278 128.605338 
L 289.487556 131.435091 
L 290.451055 127.444414 
L 287.476776 124.614661 
L 288.440275 120.623984 
L 292.378052 119.46306 
L 291.414554 123.453737 
L 294.388832 126.28349 
L 296.315829 118.302135 
L 293.341551 115.472383 
L 294.30505 111.481705 
L 302.180604 109.159857 
L 301.217105 113.150534 
L 297.279328 114.311458 
L 300.253607 117.141211 
L 304.191384 115.980287 
L 305.154882 111.98961 
L 313.030437 109.667761 
L 312.066938 113.658438 
L 308.129161 114.819363 
L 311.103439 117.649116 
L 315.041216 116.488191 
L 318.015495 119.317944 
L 316.088498 127.299298 
L 313.114219 124.469546 
L 314.077718 120.478868 
L 310.139941 121.639793 
L 309.176442 125.63047 
L 305.238665 126.791394 
L 302.264386 123.961641 
L 306.202163 122.800717 
L 307.165662 118.81004 
L 299.290108 121.131888 
L 298.326609 125.122565 
L 301.300888 127.952318 
L 300.337389 131.942996 
L 297.363111 129.113243 
L 293.425333 130.274167 
L 299.37389 135.933673 
L 303.311667 134.772748 
L 304.275166 130.782071 
L 312.15072 128.460223 
L 311.187222 132.4509 
L 307.249445 133.611824 
L 310.223723 136.441577 
L 314.1615 135.280653 
L 317.135779 138.110406 
L 316.17228 142.101083 
L 313.198002 139.27133 
L 309.260224 140.432254 
L 315.208781 146.09176 
L 319.146558 144.930836 
L 322.120837 147.760589 
L 320.19384 155.741943 
L 317.219561 152.91219 
L 318.18306 148.921513 
L 314.245283 150.082437 
L 313.281784 154.073114 
L 309.344007 155.234039 
L 303.39545 149.574533 
L 307.333227 148.413609 
L 310.307506 151.243361 
L 311.271004 147.252684 
L 308.296726 144.422931 
L 304.358949 145.583856 
L 301.38467 142.754103 
L 305.322447 141.593179 
L 306.285946 137.602501 
L 298.410392 139.92435 
L 297.446893 143.915027 
L 300.421171 146.74478 
L 299.457673 150.735457 
L 296.483394 147.905704 
L 292.545617 149.066628 
L 298.494174 154.726134 
L 302.431951 153.56521 
L 305.40623 156.394963 
L 304.442731 160.38564 
L 301.468453 157.555887 
L 297.530676 158.716811 
L 303.479232 164.376317 
L 307.41701 163.215393 
L 308.380508 159.224716 
L 316.256063 156.902867 
L 315.292564 160.893544 
L 311.354787 162.054469 
L 314.329065 164.884222 
L 318.266842 163.723297 
L 319.230341 159.73262 
L 323.168118 158.571696 
L 322.204619 162.562373 
L 325.178898 165.392126 
L 327.105895 157.410772 
L 324.131617 154.581019 
L 325.095115 150.590342 
L 332.97067 148.268493 
L 332.007171 152.25917 
L 328.069394 153.420094 
L 331.043672 156.249847 
L 334.98145 155.088923 
L 337.955728 157.918676 
L 336.028731 165.90003 
L 333.054452 163.070277 
L 334.017951 159.0796 
L 330.080174 160.240525 
L 329.116675 164.231202 
L 332.090954 167.060955 
L 331.127455 171.051632 
L 328.153176 168.221879 
L 324.215399 169.382803 
L 330.163956 175.042309 
L 334.101733 173.881385 
L 335.065232 169.890707 
L 339.003009 168.729783 
L 338.03951 172.72046 
L 341.013789 175.550213 
L 342.940786 167.568859 
L 339.966508 164.739106 
L 340.930006 160.748429 
L 344.867784 159.587505 
L 343.904285 163.578182 
L 346.878563 166.407935 
L 348.805561 158.42658 
L 345.831282 155.596827 
L 341.893505 156.757752 
L 335.944948 151.098246 
L 339.882725 149.937322 
L 342.857004 152.767075 
L 343.820502 148.776397 
L 340.846224 145.946645 
L 336.908447 147.107569 
L 333.934168 144.277816 
L 337.871945 143.116892 
L 338.835444 139.126214 
L 330.95989 141.448063 
L 329.996391 145.43874 
L 326.058614 146.599664 
L 320.110057 140.940159 
L 324.047834 139.779234 
L 327.022113 142.608987 
L 327.985611 138.61831 
L 325.011333 135.788557 
L 321.073556 136.949481 
L 315.124999 131.289976 
L 319.062776 130.129051 
L 322.037054 132.958804 
L 323.000553 128.968127 
L 320.026275 126.138374 
L 320.989773 122.147697 
L 328.865328 119.825849 
L 327.901829 123.816526 
L 323.964052 124.97745 
L 326.93833 127.807203 
L 330.876107 126.646279 
L 333.850386 129.476031 
L 332.886887 133.466709 
L 329.912609 130.636956 
L 325.974832 131.79788 
L 331.923389 137.457386 
L 335.861166 136.296462 
L 336.824664 132.305784 
L 340.762441 131.14486 
L 339.798943 135.135537 
L 342.773221 137.96529 
L 344.700219 129.983936 
L 341.72594 127.154183 
L 337.788163 128.315107 
L 331.839606 122.655601 
L 335.777383 121.494677 
L 338.751662 124.32443 
L 339.71516 120.333753 
L 336.740882 117.504 
L 336.740882 117.504 
" style="fill:none;stroke:#000000;stroke-linecap:square;stroke-width:0.5;"/>
   </g>
  </g>
 </g>
 <defs>
  <clipPath id="p0bc520fe17">
   <rect height="266.112" width="277.193764" x="97.563118" y="41.472"/>
  </clipPath>
 </defs>
</svg>
