<?xml version="1.0" encoding="UTF-8"?>
<!DOCTYPE svg PUBLIC "-//W3C//DTD SVG 1.1//EN" "http://www.w3.org/Graphics/SVG/1.1/DTD/svg11.dtd">
<svg width="936pt" height="86pt" viewBox="0 0 936 86" version="1.1" xmlns="http://www.w3.org/2000/svg">
<path fill="#ffffff" d=" M 0.00 0.00 L 67.02 0.00 C 51.69 2.73 36.35 5.34 21.02 8.02 C 21.02 31.34 21.01 54.67 21.02 78.00 C 36.27 80.67 51.53 83.22 66.75 86.00 L 0.00 86.00 L 0.00 0.00 Z"/>
<path fill="#2a5699" d=" M 67.02 0.00 L 73.00 0.00 C 73.00 2.67 73.00 5.33 73.00 8.00 C 83.70 8.06 94.39 7.89 105.08 8.06 C 107.36 7.83 109.15 9.60 108.94 11.88 C 109.11 31.58 108.90 51.29 109.04 70.99 C 108.94 73.01 109.24 75.25 108.07 77.04 C 106.61 78.08 104.72 77.95 103.02 78.03 C 93.01 77.98 83.01 78.00 73.00 78.00 C 73.00 80.67 73.00 83.33 73.00 86.00 L 66.75 86.00 C 51.53 83.22 36.27 80.67 21.02 78.00 C 21.01 54.67 21.02 31.34 21.02 8.02 C 36.35 5.34 51.69 2.73 67.02 0.00 Z"/>
<path fill="#ffffff" d=" M 73.00 0.00 L 167.06 0.00 C 151.72 2.71 136.37 5.34 121.02 8.01 C 121.02 31.34 121.02 54.67 121.02 78.00 C 136.28 80.67 151.55 83.23 166.79 86.00 L 73.00 86.00 C 73.00 83.33 73.00 80.67 73.00 78.00 C 83.01 78.00 93.01 77.98 103.02 78.03 C 104.72 77.95 106.61 78.08 108.07 77.04 C 109.24 75.25 108.94 73.01 109.04 70.99 C 108.90 51.29 109.11 31.58 108.94 11.88 C 109.15 9.60 107.36 7.83 105.08 8.06 C 94.39 7.89 83.70 8.06 73.00 8.00 C 73.00 5.33 73.00 2.67 73.00 0.00 Z"/>
<path fill="#207245" d=" M 167.06 0.00 L 173.00 0.00 C 173.00 2.67 173.00 5.33 173.00 8.00 C 183.01 8.00 193.02 8.02 203.03 7.97 C 204.72 8.04 206.58 7.92 208.05 8.93 C 209.08 10.41 208.96 12.29 209.03 13.99 C 208.98 31.35 209.00 48.70 209.01 66.05 C 208.96 68.96 209.28 71.93 208.67 74.80 C 208.27 76.88 205.77 76.93 204.10 77.00 C 193.74 77.03 183.37 76.98 173.00 77.00 C 173.00 80.00 173.00 83.00 173.00 86.00 L 166.79 86.00 C 151.55 83.23 136.28 80.67 121.02 78.00 C 121.02 54.67 121.02 31.34 121.02 8.01 C 136.37 5.34 151.72 2.71 167.06 0.00 Z"/>
<path fill="#ffffff" d=" M 173.00 0.00 L 269.33 0.00 C 253.88 2.63 238.45 5.35 223.02 8.02 C 223.02 31.34 223.01 54.67 223.02 78.00 C 238.27 80.68 253.54 83.22 268.78 86.00 L 173.00 86.00 C 173.00 83.00 173.00 80.00 173.00 77.00 C 183.37 76.98 193.74 77.03 204.10 77.00 C 205.77 76.93 208.27 76.88 208.67 74.80 C 209.28 71.93 208.96 68.96 209.01 66.05 C 209.00 48.70 208.98 31.35 209.03 13.99 C 208.96 12.29 209.08 10.41 208.05 8.93 C 206.58 7.92 204.72 8.04 203.03 7.97 C 193.02 8.02 183.01 8.00 173.00 8.00 C 173.00 5.33 173.00 2.67 173.00 0.00 Z"/>
<path fill="#d24625" d=" M 269.33 0.00 L 275.00 0.00 C 275.00 3.00 275.00 6.00 275.00 9.00 C 285.69 9.06 296.39 8.89 307.07 9.05 C 309.37 8.83 311.17 10.62 310.94 12.92 C 311.11 31.60 310.90 50.29 311.04 68.98 C 310.94 71.00 311.24 73.24 310.08 75.03 C 308.62 76.09 306.72 75.95 305.01 76.03 C 295.01 75.98 285.01 76.00 275.00 76.00 C 275.00 79.33 275.00 82.67 275.00 86.00 L 268.78 86.00 C 253.54 83.22 238.27 80.68 223.02 78.00 C 223.01 54.67 223.02 31.34 223.02 8.02 C 238.45 5.35 253.88 2.63 269.33 0.00 Z"/>
<path fill="#ffffff" d=" M 275.00 0.00 L 371.02 0.00 C 355.69 2.73 340.35 5.33 325.01 8.02 C 325.01 31.34 325.01 54.67 325.02 78.00 C 340.28 80.68 355.56 83.23 370.80 86.00 L 275.00 86.00 C 275.00 82.67 275.00 79.33 275.00 76.00 C 285.01 76.00 295.01 75.98 305.01 76.03 C 306.72 75.95 308.62 76.09 310.08 75.03 C 311.24 73.24 310.94 71.00 311.04 68.98 C 310.90 50.29 311.11 31.60 310.94 12.92 C 311.17 10.62 309.37 8.83 307.07 9.05 C 296.39 8.89 285.69 9.06 275.00 9.00 C 275.00 6.00 275.00 3.00 275.00 0.00 Z"/>
<path fill="#0071c5" d=" M 371.02 0.00 L 377.00 0.00 C 377.00 6.67 377.00 13.33 377.00 20.00 C 387.36 20.02 397.71 19.97 408.06 20.00 C 410.10 19.90 412.89 20.49 412.85 23.06 C 413.23 35.71 412.86 48.39 413.03 61.05 C 413.07 63.29 413.00 66.82 409.95 66.85 C 398.98 67.23 387.98 66.88 377.00 67.00 C 377.00 73.33 377.00 79.67 377.00 86.00 L 370.80 86.00 C 355.56 83.23 340.28 80.68 325.02 78.00 C 325.01 54.67 325.01 31.34 325.01 8.02 C 340.35 5.33 355.69 2.73 371.02 0.00 Z"/>
<path fill="#ffffff" d=" M 377.00 0.00 L 473.02 0.00 C 457.70 2.73 442.35 5.34 427.02 8.02 C 427.02 31.34 427.02 54.67 427.02 78.00 C 442.27 80.68 457.54 83.22 472.77 86.00 L 377.00 86.00 C 377.00 79.67 377.00 73.33 377.00 67.00 C 387.98 66.88 398.98 67.23 409.95 66.85 C 413.00 66.82 413.07 63.29 413.03 61.05 C 412.86 48.39 413.23 35.71 412.85 23.06 C 412.89 20.49 410.10 19.90 408.06 20.00 C 397.71 19.97 387.36 20.02 377.00 20.00 C 377.00 13.33 377.00 6.67 377.00 0.00 Z"/>
<path fill="#a33639" d=" M 473.02 0.00 L 479.00 0.00 C 479.00 2.91 479.00 5.81 479.00 8.72 C 488.66 7.49 498.76 7.58 508.03 10.86 C 511.52 12.05 515.32 14.77 514.98 18.93 C 515.02 34.30 515.02 49.68 514.98 65.06 C 515.33 69.27 511.43 71.97 507.90 73.15 C 498.62 76.23 488.63 76.60 479.00 75.23 C 479.00 78.82 479.00 82.41 479.00 86.00 L 472.77 86.00 C 457.54 83.22 442.27 80.68 427.02 78.00 C 427.02 54.67 427.02 31.34 427.02 8.02 C 442.35 5.34 457.70 2.73 473.02 0.00 Z"/>
<path fill="#ffffff" d=" M 479.00 0.00 L 576.02 0.00 C 560.70 2.73 545.37 5.35 530.04 8.02 C 530.04 31.35 530.04 54.67 530.05 78.00 C 545.28 80.66 560.53 83.21 575.74 86.00 L 479.00 86.00 C 479.00 82.41 479.00 78.82 479.00 75.23 C 488.63 76.60 498.62 76.23 507.90 73.15 C 511.43 71.97 515.33 69.27 514.98 65.06 C 515.02 49.68 515.02 34.30 514.98 18.93 C 515.32 14.77 511.52 12.05 508.03 10.86 C 498.76 7.58 488.66 7.49 479.00 8.72 C 479.00 5.81 479.00 2.91 479.00 0.00 Z"/>
<path fill="#733781" d=" M 576.02 0.00 L 582.00 0.00 C 582.00 2.67 582.00 5.34 582.01 8.01 C 591.37 8.37 600.84 7.25 610.13 8.65 C 610.46 9.71 610.81 10.76 611.16 11.81 C 613.52 12.23 617.32 11.94 617.69 15.14 C 618.45 20.99 617.92 26.91 617.54 32.77 C 618.08 39.00 618.45 45.33 617.36 51.52 C 618.27 57.25 618.28 63.13 617.67 68.88 C 617.24 71.99 613.55 71.77 611.22 72.21 C 610.88 73.84 610.91 75.63 610.03 77.08 C 608.23 78.21 606.00 77.94 603.99 78.03 C 596.66 77.96 589.33 77.99 582.01 77.99 C 582.00 80.66 582.00 83.33 582.00 86.00 L 575.74 86.00 C 560.53 83.21 545.28 80.66 530.05 78.00 C 530.04 54.67 530.04 31.35 530.04 8.02 C 545.37 5.35 560.70 2.73 576.02 0.00 Z"/>
<path fill="#ffffff" d=" M 582.00 0.00 L 679.06 0.00 C 663.72 2.71 648.36 5.34 633.02 8.01 C 633.01 31.34 633.01 54.67 633.02 78.00 C 648.28 80.68 663.56 83.23 678.81 86.00 L 582.00 86.00 C 582.00 83.33 582.00 80.66 582.01 77.99 C 589.33 77.99 596.66 77.96 603.99 78.03 C 606.00 77.94 608.23 78.21 610.03 77.08 C 610.91 75.63 610.88 73.84 611.22 72.21 C 613.55 71.77 617.24 71.99 617.67 68.88 C 618.28 63.13 618.27 57.25 617.36 51.52 C 618.45 45.33 618.08 39.00 617.54 32.77 C 617.92 26.91 618.45 20.99 617.69 15.14 C 617.32 11.94 613.52 12.23 611.16 11.81 C 610.81 10.76 610.46 9.71 610.13 8.65 C 600.84 7.25 591.37 8.37 582.01 8.01 C 582.00 5.34 582.00 2.67 582.00 0.00 Z"/>
<path fill="#077467" d=" M 679.06 0.00 L 685.00 0.00 C 685.00 6.00 685.00 12.00 685.00 18.00 C 687.34 18.00 689.69 18.00 692.04 18.00 C 692.32 14.43 690.71 8.76 695.21 7.30 C 701.43 6.57 707.74 7.23 714.00 6.97 C 716.47 7.19 719.63 6.37 721.49 8.48 C 722.02 9.91 721.95 11.48 722.02 12.99 C 721.99 26.65 721.97 40.32 722.03 53.98 C 721.99 55.80 722.02 57.68 721.41 59.42 C 718.38 60.41 715.12 59.92 712.00 60.01 C 711.85 64.57 712.39 69.20 711.68 73.72 C 710.83 76.06 708.05 75.95 706.02 76.01 C 699.01 76.03 692.01 75.98 685.00 76.00 C 685.00 79.33 685.00 82.67 685.00 86.00 L 678.81 86.00 C 663.56 83.23 648.28 80.68 633.02 78.00 C 633.01 54.67 633.01 31.34 633.02 8.01 C 648.36 5.34 663.72 2.71 679.06 0.00 Z"/>
<path fill="#ffffff" d=" M 685.00 0.00 L 781.03 0.00 C 765.70 2.73 750.35 5.33 735.01 8.02 C 735.01 31.34 735.01 54.67 735.02 78.00 C 750.27 80.68 765.56 83.22 780.80 86.00 L 685.00 86.00 C 685.00 82.67 685.00 79.33 685.00 76.00 C 692.01 75.98 699.01 76.03 706.02 76.01 C 708.05 75.95 710.83 76.06 711.68 73.72 C 712.39 69.20 711.85 64.57 712.00 60.01 C 715.12 59.92 718.38 60.41 721.41 59.42 C 722.02 57.68 721.99 55.80 722.03 53.98 C 721.97 40.32 721.99 26.65 722.02 12.99 C 721.95 11.48 722.02 9.91 721.49 8.48 C 719.63 6.37 716.47 7.19 714.00 6.97 C 707.74 7.23 701.43 6.57 695.21 7.30 C 690.71 8.76 692.32 14.43 692.04 18.00 C 689.69 18.00 687.34 18.00 685.00 18.00 C 685.00 12.00 685.00 6.00 685.00 0.00 Z"/>
<path fill="#0071c5" d=" M 781.03 0.00 L 787.00 0.00 C 786.99 5.11 787.04 10.23 786.96 15.34 C 788.82 14.34 790.73 12.79 793.00 13.28 C 797.57 13.98 799.57 18.71 802.28 21.88 C 808.27 21.51 814.67 22.57 819.23 26.78 C 825.68 31.96 828.53 41.17 825.89 49.05 C 824.41 54.21 820.61 58.35 816.15 61.17 C 817.06 63.72 817.97 66.75 816.20 69.17 C 814.16 72.64 808.98 73.70 805.91 71.02 C 803.71 68.79 801.96 66.17 799.90 63.82 C 795.49 63.90 791.08 63.33 786.99 61.63 C 787.01 69.75 786.99 77.88 787.00 86.00 L 780.80 86.00 C 765.56 83.22 750.27 80.68 735.02 78.00 C 735.01 54.67 735.01 31.34 735.01 8.02 C 750.35 5.33 765.70 2.73 781.03 0.00 Z"/>
<path fill="#ffffff" d=" M 787.00 0.00 L 881.97 0.00 C 866.66 2.73 851.34 5.34 836.02 8.02 C 836.02 31.34 836.02 54.67 836.02 78.00 C 851.25 80.68 866.51 83.22 881.72 86.00 L 787.00 86.00 C 786.99 77.88 787.01 69.75 786.99 61.63 C 791.08 63.33 795.49 63.90 799.90 63.82 C 801.96 66.17 803.71 68.79 805.91 71.02 C 808.98 73.70 814.16 72.64 816.20 69.17 C 817.97 66.75 817.06 63.72 816.15 61.17 C 820.61 58.35 824.41 54.21 825.89 49.05 C 828.53 41.17 825.68 31.96 819.23 26.78 C 814.67 22.57 808.27 21.51 802.28 21.88 C 799.57 18.71 797.57 13.98 793.00 13.28 C 790.73 12.79 788.82 14.34 786.96 15.34 C 787.04 10.23 786.99 5.11 787.00 0.00 Z"/>
<path fill="#733781" d=" M 881.97 0.00 L 888.00 0.00 C 888.00 7.36 888.00 14.71 888.00 22.07 C 895.33 21.93 902.66 22.03 910.00 22.00 C 909.99 20.77 909.99 19.54 910.00 18.31 C 908.13 17.62 905.16 17.93 904.50 15.57 C 903.06 11.87 907.01 9.45 909.06 7.02 C 911.41 4.81 913.92 0.83 917.71 2.36 C 920.39 3.90 922.25 6.49 924.47 8.60 C 925.99 10.33 928.38 12.18 927.69 14.81 C 927.41 17.67 924.11 17.68 922.00 18.32 C 922.01 29.21 921.97 40.11 922.03 51.00 C 921.96 53.03 922.11 55.23 921.00 57.04 C 919.19 58.09 917.03 57.98 915.04 58.03 C 909.02 58.00 903.01 57.99 897.00 58.00 C 896.99 59.23 896.99 60.46 897.00 61.68 C 899.08 62.32 902.40 62.28 902.69 65.12 C 903.44 67.52 901.38 69.34 899.94 70.92 C 897.76 73.07 895.80 75.48 893.34 77.32 C 891.73 78.46 889.74 77.56 887.99 77.39 C 888.00 80.26 888.00 83.13 888.00 86.00 L 881.72 86.00 C 866.51 83.22 851.25 80.68 836.02 78.00 C 836.02 54.67 836.02 31.34 836.02 8.02 C 851.34 5.34 866.66 2.73 881.97 0.00 Z"/>
<path fill="#ffffff" d=" M 888.00 0.00 L 936.00 0.00 L 936.00 86.00 L 888.00 86.00 C 888.00 83.13 888.00 80.26 887.99 77.39 C 889.74 77.56 891.73 78.46 893.34 77.32 C 895.80 75.48 897.76 73.07 899.94 70.92 C 901.38 69.34 903.44 67.52 902.69 65.12 C 902.40 62.28 899.08 62.32 897.00 61.68 C 896.99 60.46 896.99 59.23 897.00 58.00 C 903.01 57.99 909.02 58.00 915.04 58.03 C 917.03 57.98 919.19 58.09 921.00 57.04 C 922.11 55.23 921.96 53.03 922.03 51.00 C 921.97 40.11 922.01 29.21 922.00 18.32 C 924.11 17.68 927.41 17.67 927.69 14.81 C 928.38 12.18 925.99 10.33 924.47 8.60 C 922.25 6.49 920.39 3.90 917.71 2.36 C 913.92 0.83 911.41 4.81 909.06 7.02 C 907.01 9.45 903.06 11.87 904.50 15.57 C 905.16 17.93 908.13 17.62 910.00 18.31 C 909.99 19.54 909.99 20.77 910.00 22.00 C 902.66 22.03 895.33 21.93 888.00 22.07 C 888.00 14.71 888.00 7.36 888.00 0.00 Z"/>
<path fill="#ffffff" d=" M 914.67 5.64 C 915.82 4.17 917.47 5.55 918.32 6.58 C 920.64 9.28 923.74 11.45 925.22 14.79 C 923.14 14.94 921.06 15.00 919.00 15.04 C 918.98 28.35 919.04 41.65 918.96 54.96 C 911.64 55.04 904.32 54.98 897.00 55.00 C 896.99 53.00 896.99 51.00 897.00 49.00 C 902.33 49.00 907.66 49.00 913.00 49.00 C 913.00 37.68 913.00 26.36 913.00 15.04 C 910.91 15.00 908.83 14.94 906.77 14.81 C 908.52 11.11 911.96 8.61 914.67 5.64 Z"/>
<path fill="#ffffff" d=" M 696.88 10.30 C 704.23 9.65 711.63 10.16 719.00 10.00 C 719.00 25.33 719.00 40.67 719.00 56.00 C 716.66 56.00 714.33 56.00 712.00 56.00 C 711.98 43.98 712.03 31.97 711.98 19.95 C 707.28 16.23 700.97 14.68 696.88 10.30 Z"/>
<path fill="#ffffff" d=" M 73.00 11.00 C 84.00 11.00 95.00 11.00 106.00 11.00 C 106.00 32.33 106.00 53.67 106.00 75.00 C 95.00 75.00 84.00 75.00 73.00 75.00 C 73.00 72.33 73.00 69.67 73.00 67.00 C 81.67 67.00 90.33 67.00 99.00 67.00 C 99.00 65.67 99.00 64.33 99.00 63.00 C 90.33 63.00 81.67 63.00 73.00 63.00 C 73.00 61.33 73.00 59.67 73.00 58.00 C 81.67 58.00 90.33 58.00 99.00 58.00 C 99.00 56.67 99.00 55.33 99.00 54.00 C 90.33 54.00 81.67 54.00 73.00 54.00 C 73.00 52.33 73.00 50.67 73.00 49.00 C 81.67 49.00 90.33 49.00 99.00 49.00 C 99.00 47.67 99.00 46.33 99.00 45.00 C 90.33 45.00 81.67 45.00 73.00 45.00 C 73.00 43.33 73.00 41.67 73.00 40.00 C 81.67 40.00 90.33 40.00 99.00 40.00 C 99.00 38.67 99.00 37.33 99.00 36.00 C 90.33 36.00 81.67 36.00 73.00 36.00 C 73.00 34.33 73.00 32.67 73.00 31.00 C 81.67 31.00 90.33 31.00 99.00 31.00 C 99.00 29.67 99.00 28.33 99.00 27.00 C 90.33 27.00 81.67 27.00 73.00 27.00 C 73.00 25.33 73.00 23.67 73.00 22.00 C 81.67 22.00 90.33 22.00 99.00 22.00 C 99.00 20.67 99.00 19.33 99.00 18.00 C 90.33 18.00 81.67 18.00 73.00 18.00 C 73.00 15.67 73.00 13.33 73.00 11.00 Z"/>
<path fill="#ffffff" d=" M 173.00 11.00 C 184.00 11.00 195.00 11.00 206.00 11.00 C 206.00 32.00 206.00 53.00 206.00 74.00 C 195.00 74.00 184.00 74.00 173.00 74.00 C 173.00 72.00 173.00 70.00 173.00 68.00 C 175.67 68.00 178.33 68.00 181.00 68.00 C 181.00 65.67 181.00 63.33 181.00 61.00 C 178.33 61.00 175.67 61.00 173.00 61.00 C 173.00 59.67 173.00 58.33 173.00 57.00 C 175.67 57.00 178.33 57.00 181.00 57.00 C 181.00 54.67 181.00 52.33 181.00 50.00 C 178.33 50.00 175.67 50.00 173.00 50.00 C 173.00 48.67 173.00 47.33 173.00 46.00 C 175.67 46.00 178.33 46.00 181.00 46.00 C 181.00 43.67 181.00 41.33 181.00 39.00 C 178.33 39.00 175.67 39.00 173.00 39.00 C 173.00 37.67 173.00 36.33 173.00 35.00 C 175.67 35.00 178.33 35.00 181.00 35.00 C 181.00 32.67 181.00 30.33 181.00 28.00 C 178.33 28.00 175.67 28.00 173.00 28.00 C 173.00 26.67 173.00 25.33 173.00 24.00 C 175.67 24.00 178.33 24.00 181.00 24.00 C 181.00 21.67 181.00 19.33 181.00 17.00 C 178.33 17.00 175.67 17.00 173.00 17.00 C 173.00 15.00 173.00 13.00 173.00 11.00 Z"/>
<path fill="#ffffff" d=" M 479.00 11.76 C 487.93 10.53 497.23 10.57 505.91 13.22 C 508.30 14.11 511.50 15.18 512.04 18.03 C 511.64 20.36 509.21 21.41 507.29 22.25 C 498.22 25.31 488.41 25.60 479.00 24.18 C 479.00 20.04 479.00 15.90 479.00 11.76 Z"/>
<path fill="#ffffff" d=" M 582.00 10.99 C 590.67 10.99 599.34 10.98 608.01 10.99 C 608.00 12.32 608.00 13.64 608.01 14.97 C 610.31 14.98 612.61 15.02 614.92 15.12 C 615.05 20.38 615.10 25.64 614.88 30.90 C 612.59 30.98 610.29 31.02 608.01 31.03 C 608.01 45.69 608.02 60.35 608.01 75.01 C 599.34 75.02 590.67 75.01 582.00 75.01 C 582.00 72.34 582.00 69.66 582.00 66.99 C 588.33 66.98 594.66 66.99 601.00 66.99 C 600.99 65.66 600.99 64.34 601.00 63.01 C 594.66 63.01 588.33 63.02 582.00 63.01 C 582.00 61.34 582.00 59.66 582.00 57.99 C 588.33 57.98 594.66 57.99 601.00 57.99 C 600.99 56.66 600.99 55.34 601.00 54.01 C 594.66 54.01 588.33 54.02 582.00 54.01 C 582.00 52.34 582.00 50.66 582.00 48.99 C 588.33 48.98 594.66 48.99 601.00 48.99 C 600.99 47.66 600.99 46.34 601.00 45.01 C 594.66 45.01 588.33 45.02 582.00 45.01 C 582.00 43.34 582.00 41.66 582.00 39.99 C 588.33 39.98 594.66 39.99 600.99 39.99 C 600.99 38.66 600.99 37.34 601.00 36.01 C 594.66 36.01 588.33 36.02 582.00 36.01 C 582.00 34.34 582.00 32.66 582.00 30.99 C 588.33 30.98 594.66 30.99 601.00 30.99 C 600.99 29.66 600.99 28.34 601.00 27.01 C 594.66 27.01 588.33 27.02 582.00 27.01 C 582.00 25.34 582.00 23.66 582.00 21.99 C 588.33 21.98 594.66 21.99 601.00 21.99 C 600.99 20.66 600.99 19.34 601.00 18.01 C 594.66 18.01 588.33 18.02 582.00 18.01 C 582.00 15.67 582.00 13.33 582.00 10.99 Z"/>
<path fill="#ffffff" d=" M 275.00 12.00 C 286.00 12.00 297.00 12.00 308.00 12.00 C 308.00 32.33 308.00 52.67 308.00 73.00 C 297.00 73.00 286.00 73.00 275.00 73.00 C 275.00 70.33 275.00 67.67 275.00 65.00 C 283.00 65.00 291.00 65.00 299.00 65.00 C 299.00 63.67 299.00 62.33 299.00 61.00 C 291.00 61.00 283.00 61.00 275.00 61.00 C 275.00 59.33 275.00 57.67 275.00 56.00 C 283.00 56.00 291.00 56.00 299.00 56.00 C 299.00 54.67 299.00 53.33 299.00 52.00 C 291.00 52.00 283.00 52.00 275.01 52.00 C 275.00 50.04 275.00 48.08 274.99 46.12 C 278.95 47.35 283.46 47.32 287.00 44.94 C 290.83 42.67 292.83 38.34 293.16 34.02 C 288.77 33.99 284.38 34.00 280.00 34.00 C 279.99 29.65 280.05 25.30 279.91 20.96 C 278.27 21.28 276.63 21.62 275.00 21.97 C 275.00 18.65 275.00 15.32 275.00 12.00 Z"/>
<path fill="#ffffff" d=" M 788.22 19.11 C 788.99 16.14 793.45 15.08 795.30 17.64 C 799.44 22.68 803.34 27.92 807.44 33.00 C 802.97 33.16 798.45 32.62 794.02 33.31 C 790.52 34.08 788.15 37.09 787.00 40.31 C 787.05 35.94 786.91 31.57 787.10 27.21 C 788.36 26.67 789.63 26.15 790.92 25.62 C 789.68 23.66 787.48 21.66 788.22 19.11 Z"/>
<path fill="#207245" d=" M 185.00 17.00 C 189.67 17.00 194.33 17.00 199.00 17.00 C 199.00 19.33 199.00 21.67 199.00 24.00 C 194.33 24.00 189.67 24.00 185.00 24.00 C 185.00 21.67 185.00 19.33 185.00 17.00 Z"/>
<path fill="#d24625" d=" M 282.01 18.87 C 288.96 19.19 294.80 25.04 295.17 31.97 C 290.78 32.02 286.39 32.00 282.00 32.00 C 282.00 27.62 281.99 23.24 282.01 18.87 Z"/>
<path fill="#ffffff" d=" M 685.00 21.00 C 692.67 21.00 700.33 21.00 708.00 21.00 C 708.00 38.33 708.00 55.67 708.00 73.00 C 700.33 73.00 692.67 73.00 685.00 73.00 C 684.99 71.00 684.99 69.00 685.00 67.00 C 690.67 67.00 696.33 67.00 702.00 67.00 C 701.99 65.67 701.99 64.33 702.00 63.00 C 696.33 63.00 690.67 63.00 685.00 63.00 C 684.99 61.33 684.99 59.67 685.00 58.00 C 690.67 58.00 696.33 58.00 702.00 58.00 C 701.99 56.67 701.99 55.33 702.00 54.00 C 696.33 54.00 690.67 54.00 685.00 54.00 C 684.99 52.33 684.99 50.67 685.00 49.00 C 690.67 49.00 696.33 49.00 702.00 49.00 C 701.99 47.67 701.99 46.33 702.00 45.00 C 696.33 45.00 690.67 45.00 685.00 45.00 C 684.99 43.33 684.99 41.67 685.00 40.00 C 690.67 40.00 696.33 40.00 702.00 40.00 C 702.00 35.33 702.00 30.67 702.00 26.00 C 696.33 26.00 690.67 26.00 685.00 26.00 C 684.99 24.33 684.99 22.67 685.00 21.00 Z"/>
<path fill="#ffffff" d=" M 377.00 23.00 C 388.08 23.01 399.15 22.97 410.23 23.02 C 410.04 24.33 409.64 25.62 408.54 26.44 C 401.92 32.61 395.34 38.81 388.74 45.00 C 384.77 41.41 380.91 37.70 377.00 34.05 C 377.00 30.36 377.00 26.68 377.00 23.00 Z"/>
<path fill="#ffffff" d=" M 499.48 27.32 C 503.88 26.67 508.47 25.72 512.03 22.86 C 511.81 27.16 512.37 31.51 511.73 35.77 C 509.94 37.90 507.10 38.66 504.54 39.39 C 496.19 41.36 487.48 41.41 479.00 40.32 C 479.00 36.00 479.00 31.68 479.00 27.36 C 485.79 28.22 492.69 28.21 499.48 27.32 Z"/>
<path fill="#ffffff" d=" M 804.05 24.70 C 809.39 24.68 814.95 26.25 818.71 30.21 C 824.15 35.43 825.50 44.20 822.08 50.87 C 819.97 55.18 816.00 58.28 811.61 60.02 C 812.75 61.87 814.63 63.64 814.34 66.01 C 813.92 68.36 811.32 69.87 809.06 69.28 C 807.42 68.52 806.38 66.98 805.26 65.64 C 801.91 61.25 798.45 56.95 795.04 52.60 C 799.64 52.36 804.37 53.16 808.91 52.12 C 814.79 50.46 817.54 42.84 814.26 37.72 C 811.18 33.14 807.32 29.14 804.05 24.70 Z"/>
<path fill="#ffffff" d=" M 888.06 25.05 C 895.37 24.95 902.68 25.02 910.00 25.00 C 909.99 27.00 909.99 29.00 910.00 31.00 C 904.66 31.00 899.33 31.00 894.00 31.00 C 894.00 42.33 894.00 53.65 894.00 64.98 C 896.02 65.00 898.06 65.03 900.10 65.12 C 898.69 68.96 894.97 71.34 892.35 74.35 C 890.81 76.11 889.13 73.83 887.98 72.85 C 888.06 56.92 887.91 40.98 888.06 25.05 Z"/>
<path fill="#ffffff" d=" M 150.64 26.37 C 152.90 26.21 155.17 26.07 157.44 25.96 C 154.77 31.43 152.09 36.90 149.37 42.35 C 152.12 47.95 154.93 53.51 157.69 59.11 C 155.28 58.97 152.88 58.82 150.47 58.65 C 148.77 54.48 146.70 50.45 145.48 46.09 C 144.12 50.15 142.18 53.98 140.62 57.96 C 138.43 57.93 136.24 57.84 134.05 57.75 C 136.62 52.72 139.10 47.65 141.75 42.65 C 139.50 37.50 137.03 32.45 134.71 27.33 C 136.91 27.20 139.11 27.07 141.31 26.95 C 142.80 30.86 144.43 34.72 145.66 38.73 C 146.98 34.48 148.95 30.48 150.64 26.37 Z"/>
<path fill="#ffffff" d=" M 239.06 26.42 C 244.49 26.68 251.07 24.27 255.57 28.34 C 259.88 33.57 258.74 43.19 252.35 46.32 C 250.08 47.48 247.48 47.32 245.01 47.24 C 245.00 51.15 244.99 55.06 245.00 58.97 C 243.02 58.80 241.03 58.63 239.05 58.47 C 238.96 47.79 238.94 37.10 239.06 26.42 Z"/>
<path fill="#ffffff" d=" M 346.45 26.66 C 352.09 24.53 358.68 27.52 361.07 32.97 C 364.33 40.47 363.87 50.73 357.39 56.40 C 351.42 61.51 341.41 58.60 338.69 51.34 C 335.11 42.97 336.85 30.09 346.45 26.66 Z"/>
<path fill="#ffffff" d=" M 447.43 26.29 C 449.76 26.12 452.08 25.96 454.42 25.78 C 457.77 36.98 460.95 48.24 464.26 59.45 C 461.95 59.30 459.64 59.13 457.35 58.92 C 456.74 56.42 456.09 53.92 455.43 51.43 C 452.36 51.42 449.29 51.32 446.23 51.17 C 445.64 53.54 445.04 55.90 444.43 58.26 C 442.47 58.11 440.52 57.97 438.57 57.84 C 441.49 47.31 444.53 36.82 447.43 26.29 Z"/>
<path fill="#ffffff" d=" M 560.94 26.23 C 562.93 26.12 564.93 26.01 566.94 25.92 C 566.94 36.96 566.94 48.01 566.94 59.05 C 564.78 58.96 562.64 58.84 560.50 58.72 C 556.52 51.07 552.21 43.59 548.36 35.87 C 548.58 43.27 548.45 50.68 548.47 58.08 C 546.65 57.96 544.85 57.85 543.04 57.74 C 543.07 47.58 543.06 37.41 543.04 27.25 C 545.10 27.14 547.15 27.03 549.22 26.92 C 553.13 34.08 557.10 41.21 560.90 48.44 C 560.98 41.04 560.90 33.63 560.94 26.23 Z"/>
<path fill="#ffffff" d=" M 649.00 26.47 C 654.45 26.64 661.07 24.27 665.59 28.36 C 669.88 33.61 668.73 43.19 662.34 46.32 C 660.07 47.48 657.47 47.33 655.01 47.23 C 655.00 51.15 654.99 55.07 655.00 59.00 C 652.98 58.80 650.96 58.60 648.95 58.38 C 649.05 47.74 648.96 37.11 649.00 26.47 Z"/>
<path fill="#ffffff" d=" M 857.95 26.31 C 859.94 26.21 861.93 26.10 863.93 25.99 C 864.06 37.33 863.97 48.68 864.00 60.02 C 861.97 59.78 859.95 59.55 857.94 59.32 C 857.95 48.32 857.92 37.31 857.95 26.31 Z"/>
<path fill="#ffffff" d=" M 754.00 27.24 C 756.01 27.14 758.03 27.04 760.06 26.95 C 760.06 35.76 760.05 44.57 760.06 53.38 C 763.37 53.53 766.69 53.61 770.01 53.78 C 770.00 55.85 770.00 57.92 770.01 60.00 C 764.67 59.61 759.33 59.36 754.00 58.98 C 753.99 48.40 753.99 37.82 754.00 27.24 Z"/>
<path fill="#ffffff" d=" M 41.68 28.67 C 43.58 28.56 45.48 28.48 47.38 28.38 C 48.71 35.13 50.07 41.87 51.51 48.59 C 52.64 41.65 53.89 34.73 55.10 27.80 C 57.10 27.73 59.10 27.62 61.09 27.50 C 58.83 37.19 56.85 46.96 54.38 56.59 C 52.71 57.46 50.21 56.55 48.23 56.69 C 46.90 50.07 45.35 43.49 44.16 36.84 C 42.99 43.30 41.47 49.70 40.13 56.12 C 38.21 56.02 36.28 55.90 34.35 55.77 C 32.69 46.97 30.74 38.23 29.19 29.41 C 30.90 29.33 32.62 29.26 34.33 29.20 C 35.36 35.57 36.53 41.91 37.43 48.29 C 38.84 41.75 40.28 35.21 41.68 28.67 Z"/>
<path fill="#207245" d=" M 185.00 28.00 C 189.67 28.00 194.33 28.00 199.00 28.00 C 199.00 30.33 199.00 32.67 199.00 35.00 C 194.33 35.00 189.67 35.00 185.00 35.00 C 185.00 32.67 185.00 30.33 185.00 28.00 Z"/>
<path fill="#ffffff" d=" M 391.88 45.89 C 397.89 40.18 403.95 34.51 409.99 28.83 C 410.02 40.55 409.99 52.28 410.00 64.00 C 399.00 64.00 388.00 64.00 377.00 64.00 C 377.00 55.28 376.99 46.56 377.01 37.85 C 380.74 41.15 384.08 44.91 388.04 47.92 C 389.67 48.22 390.77 46.81 391.88 45.89 Z"/>
<path fill="#d24625" d=" M 245.00 31.83 C 246.97 31.74 249.41 31.38 250.74 33.23 C 251.88 35.19 251.82 37.77 250.87 39.79 C 249.73 41.85 247.15 41.65 245.16 41.89 C 244.95 38.54 244.97 35.19 245.00 31.83 Z"/>
<path fill="#0071c5" d=" M 347.42 32.67 C 350.08 31.40 353.41 32.69 354.66 35.32 C 356.66 39.28 356.65 44.11 355.34 48.29 C 354.41 51.26 351.16 53.71 348.01 52.54 C 344.08 51.30 342.89 46.64 342.85 42.99 C 342.80 39.21 343.67 34.50 347.42 32.67 Z"/>
<path fill="#a33639" d=" M 447.48 45.77 C 448.49 41.09 449.99 36.52 450.66 31.77 C 451.56 36.51 452.95 41.13 454.09 45.81 C 451.88 45.80 449.68 45.79 447.48 45.77 Z"/>
<path fill="#077467" d=" M 655.00 31.84 C 656.98 31.73 659.46 31.37 660.78 33.28 C 661.88 35.24 661.80 37.79 660.87 39.80 C 659.71 41.85 657.15 41.65 655.15 41.88 C 654.95 38.54 654.98 35.19 655.00 31.84 Z"/>
<path fill="#ffffff" d=" M 610.99 33.95 C 612.29 34.00 613.59 34.06 614.90 34.12 C 615.07 39.38 615.10 44.63 614.87 49.88 C 613.57 49.94 612.28 50.00 610.99 50.05 C 610.98 44.68 610.98 39.31 610.99 33.95 Z"/>
<path fill="#ffffff" d=" M 897.00 34.00 C 901.33 34.00 905.66 34.00 910.00 34.00 C 910.00 38.00 910.00 42.00 910.00 46.00 C 905.66 46.00 901.33 46.00 897.00 46.00 C 896.99 42.00 896.99 38.00 897.00 34.00 Z"/>
<path fill="#ffffff" d=" M 794.26 36.36 C 798.42 35.54 802.79 35.95 807.03 36.07 C 812.38 36.79 814.48 44.01 810.66 47.70 C 806.78 50.75 801.47 49.52 796.92 49.63 C 793.32 49.69 789.64 46.80 789.83 43.01 C 789.53 40.03 791.59 37.43 794.26 36.36 Z"/>
<path fill="#207245" d=" M 185.00 39.00 C 189.67 39.00 194.33 39.00 199.00 39.00 C 199.00 41.33 199.00 43.67 199.00 46.00 C 194.33 46.00 189.67 46.00 185.00 46.00 C 185.00 43.67 185.00 41.33 185.00 39.00 Z"/>
<path fill="#ffffff" d=" M 499.54 43.31 C 503.93 42.66 508.49 41.71 512.03 38.86 C 511.83 43.15 512.34 47.48 511.75 51.74 C 510.00 53.88 507.16 54.64 504.61 55.37 C 496.24 57.36 487.50 57.41 479.00 56.33 C 479.00 52.00 479.00 47.68 479.00 43.36 C 485.81 44.23 492.73 44.21 499.54 43.31 Z"/>
<path fill="#ffffff" d=" M 786.94 45.02 C 789.38 51.09 794.60 55.39 798.29 60.67 C 794.34 60.80 790.41 60.01 786.98 58.01 C 787.00 53.68 787.05 49.35 786.94 45.02 Z"/>
<path fill="#207245" d=" M 185.00 50.00 C 189.67 50.00 194.33 50.00 199.00 50.00 C 199.00 52.33 199.00 54.67 199.00 57.00 C 194.33 57.00 189.67 57.00 185.00 57.00 C 185.00 54.67 185.00 52.33 185.00 50.00 Z"/>
<path fill="#ffffff" d=" M 610.99 52.94 C 612.29 53.00 613.60 53.07 614.92 53.14 C 615.07 58.37 615.06 63.60 614.92 68.83 C 613.60 68.91 612.29 68.99 610.99 69.07 C 610.98 63.69 610.98 58.32 610.99 52.94 Z"/>
<path fill="#ffffff" d=" M 499.50 59.31 C 503.90 58.67 508.47 57.71 512.03 54.86 C 511.82 59.15 512.36 63.50 511.73 67.76 C 508.90 70.84 504.41 71.41 500.52 72.20 C 493.39 73.29 486.10 73.31 478.96 72.28 C 479.03 67.97 479.00 63.67 479.00 59.36 C 485.80 60.23 492.70 60.21 499.50 59.31 Z"/>
<path fill="#207245" d=" M 185.00 61.00 C 189.67 61.00 194.33 61.00 199.00 61.00 C 199.00 63.33 199.00 65.67 199.00 68.00 C 194.33 68.00 189.67 68.00 185.00 68.00 C 185.00 65.67 185.00 63.33 185.00 61.00 Z"/>
</svg>